<svg width="164" height="40" viewBox="0 0 164 40" fill="none" xmlns="http://www.w3.org/2000/svg">
<g clip-path="url(#clip0_750_581)">
<path d="M47.7571 28.0911H59.4944V24.5789H51.9288V11.3496H47.7571V28.0911Z" fill="black"/>
<path d="M66.4484 25.75C64.775 25.75 63.9029 24.2983 63.9029 22.1208C63.9029 19.9432 64.775 18.4681 66.4484 18.4681C68.1218 18.4681 69.0174 19.9432 69.0174 22.1208C69.0174 24.2983 68.1218 25.75 66.4484 25.75ZM66.4719 28.4661C70.3608 28.4661 72.9062 25.7266 72.9062 22.1208C72.9062 18.5149 70.3608 15.7754 66.4719 15.7754C62.6066 15.7754 60.0141 18.5149 60.0141 22.1208C60.0141 25.7266 62.6066 28.4661 66.4719 28.4661Z" fill="black"/>
<path d="M79.6375 32.2359C81.4288 32.2359 83.0079 31.8378 84.0685 30.9012C85.0348 30.0349 85.6712 28.7237 85.6712 26.9207V16.1032H81.9944V17.391H81.9473C81.2402 16.3841 80.156 15.752 78.5534 15.752C75.5601 15.752 73.4861 18.2339 73.4861 21.7461C73.4861 25.4222 76.0079 27.4359 78.7183 27.4359C80.1796 27.4359 81.0988 26.8505 81.8059 26.0544H81.9001V27.2485C81.9001 28.7002 81.2166 29.5432 79.5904 29.5432C78.3177 29.5432 77.6813 29.0046 77.4692 28.3724H73.7453C74.1224 30.8778 76.3143 32.2359 79.6375 32.2359ZM79.614 24.6027C78.1763 24.6027 77.2335 23.432 77.2335 21.629C77.2335 19.8027 78.1763 18.632 79.614 18.632C81.2166 18.632 82.0651 19.99 82.0651 21.6056C82.0651 23.2915 81.2873 24.6027 79.614 24.6027Z" fill="black"/>
<path d="M93.2312 25.75C91.5578 25.75 90.6858 24.2983 90.6858 22.1208C90.6858 19.9432 91.5578 18.4681 93.2312 18.4681C94.9046 18.4681 95.8002 19.9432 95.8002 22.1208C95.8002 24.2983 94.9046 25.75 93.2312 25.75ZM93.2548 28.4661C97.1437 28.4661 99.6894 25.7266 99.6894 22.1208C99.6894 18.5149 97.1437 15.7754 93.2548 15.7754C89.3895 15.7754 86.7969 18.5149 86.7969 22.1208C86.7969 25.7266 89.3895 28.4661 93.2548 28.4661Z" fill="black"/>
<path d="M100.811 28.0911H104.653V16.1028H100.811V28.0911ZM100.811 14.4403H104.653V11.3496H100.811V14.4403Z" fill="black"/>
<path d="M106.319 32.0485H110.161V26.8505H110.208C110.962 27.8573 112.07 28.4661 113.626 28.4661C116.784 28.4661 118.881 25.9841 118.881 22.0973C118.881 18.4915 116.925 15.752 113.72 15.752C112.07 15.752 110.892 16.4778 110.067 17.5549H109.996V16.1032H106.319V32.0485ZM112.636 25.5159C110.986 25.5159 110.043 24.1812 110.043 22.2378C110.043 20.2944 110.892 18.8193 112.565 18.8193C114.215 18.8193 114.992 20.1773 114.992 22.2378C114.992 24.2749 114.097 25.5159 112.636 25.5159Z" fill="black"/>
<path d="M125.137 28.4661C128.295 28.4661 130.628 27.1081 130.628 24.4856C130.628 21.4183 128.13 20.8798 126.009 20.5285C124.477 20.2476 123.11 20.1305 123.11 19.2876C123.11 18.5383 123.841 18.1871 124.783 18.1871C125.844 18.1871 126.575 18.5149 126.716 19.592H130.251C130.063 17.2271 128.224 15.752 124.807 15.752C121.955 15.752 119.598 17.0632 119.598 19.592C119.598 22.4017 121.837 22.9637 123.935 23.3149C125.538 23.5959 126.999 23.7129 126.999 24.79C126.999 25.5627 126.268 25.9841 125.113 25.9841C123.841 25.9841 123.039 25.3988 122.898 24.2046H119.268C119.386 26.8505 121.602 28.4661 125.137 28.4661Z" fill="black"/>
<path d="M135.846 28.443C137.519 28.443 138.58 27.7874 139.452 26.6167H139.523V28.0918H143.2V16.1035H139.358V22.8001C139.358 24.2284 138.556 25.2118 137.237 25.2118C136.011 25.2118 135.422 24.486 135.422 23.1747V16.1035H131.604V23.9708C131.604 26.6401 133.065 28.443 135.846 28.443Z" fill="black"/>
<path d="M144.871 28.0915H148.713V21.3715C148.713 19.9432 149.42 18.9363 150.622 18.9363C151.777 18.9363 152.319 19.6856 152.319 20.9734V28.0915H156.16V21.3715C156.16 19.9432 156.844 18.9363 158.069 18.9363C159.224 18.9363 159.766 19.6856 159.766 20.9734V28.0915H163.608V20.2944C163.608 17.6017 162.241 15.752 159.507 15.752C157.952 15.752 156.655 16.4076 155.713 17.8593H155.665C155.053 16.5715 153.851 15.752 152.272 15.752C150.527 15.752 149.373 16.5715 148.618 17.8124H148.548V16.1032H144.871V28.0915Z" fill="black"/>
<path fill-rule="evenodd" clip-rule="evenodd" d="M25.296 11.4841C23.6515 10.3853 21.7181 9.79883 19.7403 9.79883V-0.201172C23.6959 -0.201172 27.5627 0.971808 30.8517 3.16944C34.1407 5.36706 36.7041 8.49064 38.2179 12.1451C39.7316 15.7996 40.1277 19.821 39.356 23.7006C38.5843 27.5802 36.6795 31.1439 33.8824 33.9409C31.0854 36.738 27.5217 38.6428 23.6421 39.4145C19.7625 40.1862 15.7411 39.7901 12.0866 38.2764C8.4321 36.7626 5.30853 34.1992 3.11091 30.9102C0.913275 27.6212 -0.259705 23.7544 -0.259705 19.7988H9.7403C9.7403 21.7766 10.3268 23.71 11.4256 25.3545C12.5244 26.999 14.0862 28.2807 15.9135 29.0376C17.7407 29.7945 19.7514 29.9925 21.6912 29.6066C23.631 29.2208 25.4128 28.2684 26.8114 26.8699C28.2099 25.4713 29.1623 23.6895 29.5481 21.7497C29.934 19.8099 29.736 17.7992 28.9791 15.972C28.2222 14.1447 26.9405 12.5829 25.296 11.4841Z" fill="#FC5220"/>
<path fill-rule="evenodd" clip-rule="evenodd" d="M9.74029 -0.201167C9.74029 1.11205 9.48164 2.41241 8.97909 3.62567C8.47654 4.83892 7.73995 5.94131 6.81136 6.8699C5.88278 7.79849 4.78039 8.53508 3.56713 9.03763C2.35387 9.54017 1.05351 9.79883 -0.259704 9.79883L-0.259705 19.7988C2.36673 19.7988 4.96745 19.2815 7.39397 18.2764C9.82049 17.2713 12.0253 15.7981 13.8824 13.9409C15.7396 12.0838 17.2128 9.87903 18.2179 7.4525C19.223 5.02598 19.7403 2.42526 19.7403 -0.201172L9.74029 -0.201167Z" fill="#FC5220"/>
</g>
<defs>
<clipPath id="clip0_750_581">
<rect width="164" height="40" fill="white"/>
</clipPath>
</defs>
</svg>
