<svg width="160" height="160" viewBox="0 0 160 160" fill="none" xmlns="http://www.w3.org/2000/svg">
<circle cx="80" cy="80" r="80" fill="#FC5220"/>
<circle cx="80" cy="80" r="40" fill="white"/>
<g clip-path="url(#clip0_97_11067)">
<path fill-rule="evenodd" clip-rule="evenodd" d="M87.9445 69.2097C85.0351 72.1191 79.6225 72.0098 76.5906 68.9779L75.3475 67.7349L72.9608 70.1216L74.2039 71.3647C76.4091 73.5699 79.4061 74.71 82.3822 74.7719L67.6573 89.4968L70.1435 91.983L84.8684 77.2581C84.9304 80.2342 86.0704 83.2312 88.2756 85.4364L89.5187 86.6795L91.9055 84.2928L90.6624 83.0497C87.6305 80.0178 87.5212 74.6052 90.4307 71.6958L91.624 70.5025L89.1378 68.0163L87.9445 69.2097Z" fill="#FC5220"/>
</g>
<path d="M85.7415 22.4947C82.2852 22.0888 80.4968 19.5115 80.9195 15.9232C81.3421 12.335 83.6806 10.2423 87.1369 10.6482C90.5417 11.048 92.1713 13.0496 91.8355 15.8996L91.8173 16.0541L89.0661 15.7311L89.0762 15.6452C89.2703 13.997 88.6492 13.3497 86.8265 13.1356C84.8834 12.9075 83.9923 13.5165 83.6708 16.2463C83.3492 18.9762 84.0745 19.775 86.0176 20.0032C87.8403 20.2172 88.5949 19.7314 88.789 18.0832L88.7991 17.9973L91.5504 18.3204L91.5322 18.4749C91.1965 21.325 89.1462 22.8945 85.7415 22.4947Z" fill="white"/>
<path d="M98.001 25.1892C95.351 24.2712 94.3596 22.0614 95.262 19.4646C96.17 16.8514 98.3192 15.7295 100.969 16.6475C103.603 17.5598 104.561 19.7583 103.653 22.3715C102.751 24.9683 100.635 26.1015 98.001 25.1892ZM98.7501 23.0333C100.075 23.4923 100.715 23.1284 101.265 21.5441C101.821 19.9436 101.545 19.2623 100.22 18.8033C98.8787 18.3387 98.2391 18.7026 97.6829 20.3032C97.1324 21.8874 97.4088 22.5687 98.7501 23.0333Z" fill="white"/>
<path d="M107.314 29.0019L105.096 27.6878L109.539 20.2092L111.609 21.4352L110.831 22.7436L110.921 22.7965C111.826 22.1872 112.993 22.0539 114.303 22.83C116.254 23.9854 116.319 25.7729 115.374 27.3637L112.556 32.1066L110.322 30.7836L112.875 26.4868C113.494 25.446 113.372 24.8715 112.24 24.2011C111.168 23.5661 110.503 23.6346 109.832 24.7646L107.314 29.0019Z" fill="white"/>
<path d="M118.219 36.6953C116.502 35.2163 116.218 33.8766 117.564 32.3188L119.984 29.5172L118.935 28.614L120.337 26.9907L121.438 27.939L123.128 26.7235L124.676 28.0557L123.353 29.5873L125.215 31.1905L123.812 32.8138L121.951 31.2107L119.723 33.7897C119.225 34.3657 119.366 34.6005 120.218 35.3344L121.031 36.0343L119.617 37.6707C119.246 37.4652 118.678 37.0904 118.219 36.6953Z" fill="white"/>
<path d="M123.288 41.8876C122.306 40.7019 122.172 39.2649 123.387 38.2624C124.427 37.4032 125.686 37.6206 127.047 38.8299L129.291 40.8351L129.505 40.6589C130.292 40.0089 130.086 39.4614 129.435 38.6754C128.762 37.8627 128.27 37.7302 127.59 38.292L127.443 38.4131L125.865 36.5079L126.012 36.3868C127.613 35.0649 129.693 35.4337 131.26 37.3256C132.893 39.2974 132.673 41.2289 130.884 42.705L126.908 45.9876L125.374 44.1357L126.282 43.3866L126.216 43.3067C125.424 43.3545 124.314 43.1267 123.288 41.8876ZM125.124 40.0355C124.764 40.3329 124.876 40.7118 125.361 41.298C126.034 42.1107 126.943 42.7738 127.983 41.9146L126.101 40.2384C125.692 39.8805 125.405 39.8041 125.124 40.0355Z" fill="white"/>
<path d="M130.668 52.3245C129.287 49.8076 130.081 47.6195 132.496 46.2992C134.94 44.9622 137.279 45.5556 138.677 48.1029C139.791 50.1346 139.361 52.3014 137.478 53.3311L137.296 53.4307L136.048 51.1564L136.17 51.09C137.035 50.6167 137.058 49.9737 136.542 49.0337C135.943 47.942 135.169 47.7543 133.742 48.5349C132.329 49.3071 132.071 50.0595 132.67 51.1512C133.185 52.0912 133.74 52.4186 134.606 51.9453L134.727 51.8789L135.975 54.1532L135.792 54.2528C133.909 55.2825 131.824 54.4321 130.668 52.3245Z" fill="white"/>
<path d="M135.264 62.4243C134.529 60.2819 134.961 58.9827 136.911 58.3161L140.416 57.1173L139.967 55.809L141.998 55.1144L142.469 56.4881L144.543 56.2907L145.205 58.2205L143.289 58.8759L144.085 61.1982L142.054 61.8928L141.257 59.5705L138.031 60.674C137.31 60.9205 137.312 61.1938 137.677 62.2568L138.025 63.2708L135.977 63.971C135.761 63.6065 135.46 62.9967 135.264 62.4243Z" fill="white"/>
<path d="M137.887 76.0459C137.641 72.6839 139.312 70.8461 142.196 70.6359L149.259 70.1211L149.447 72.69L142.418 73.2023C140.761 73.3232 140.251 73.9496 140.391 75.8634C140.53 77.76 141.125 78.3059 142.783 78.1851L149.811 77.6728L150 80.259L142.937 80.7738C140.054 80.984 138.133 79.408 137.887 76.0459Z" fill="white"/>
<path d="M137.629 88.2409C137.983 85.5325 139.169 84.3448 141.264 84.6181L141.315 84.6249L140.994 87.0761L140.634 87.029C139.999 86.9461 139.812 87.3053 139.648 88.5566C139.511 89.6023 139.643 89.7938 140.072 89.8499C140.536 89.9103 140.67 89.6838 141.027 88.5622L141.438 87.2908C141.969 85.6342 142.811 84.8026 144.408 85.011C146.004 85.2193 146.967 86.6699 146.646 89.1211C146.37 91.2295 145.163 92.7109 143.223 92.4577L142.983 92.4264L143.304 89.9751L143.544 90.0065C144.111 90.0804 144.451 89.8808 144.595 88.7837C144.729 87.7553 144.538 87.4862 144.126 87.4324C143.714 87.3786 143.573 87.5172 143.233 88.5188L142.7 90.0533C142.119 91.8254 141.196 92.4721 139.788 92.2884C138.174 92.0778 137.317 90.6235 137.629 88.2409Z" fill="white"/>
<path d="M141.42 104.012L140.376 102.6L141.942 101.598L142.788 103.137L142.952 103.146L143.975 101.727L145.41 102.902L144.158 104.194L144.226 104.351L145.898 104.877L145.221 106.598L143.638 105.847L143.48 105.916L143.508 107.691L141.661 107.561L141.895 105.833L141.769 105.728L140.1 106.281L139.62 104.476L141.357 104.173L141.42 104.012Z" fill="white"/>
<path d="M126.512 115.898C128.608 113.123 131.739 112.882 134.628 115.058C137.517 117.233 138.147 120.305 136.051 123.079C133.987 125.812 131.434 126.207 129.139 124.479L129.015 124.385L130.683 122.177L130.752 122.229C132.079 123.228 132.952 123.019 134.057 121.556C135.235 119.997 135.158 118.921 132.96 117.266C130.762 115.611 129.705 115.833 128.527 117.393C127.423 118.856 127.462 119.752 128.789 120.751L128.858 120.803L127.19 123.011L127.066 122.918C124.771 121.19 124.449 118.631 126.512 115.898Z" fill="white"/>
<path d="M117.996 125.119C120.123 123.293 122.534 123.549 124.329 125.633C126.134 127.731 126.025 130.15 123.898 131.975C121.784 133.79 119.398 133.511 117.593 131.414C115.798 129.329 115.882 126.933 117.996 125.119ZM119.485 126.849C118.422 127.762 118.415 128.497 119.51 129.769C120.616 131.053 121.345 131.158 122.408 130.245C123.485 129.321 123.491 128.586 122.385 127.301C121.291 126.029 120.562 125.925 119.485 126.849Z" fill="white"/>
<path d="M110.018 131.243L112.27 129.986L116.52 137.576L114.42 138.748L113.676 137.421L113.585 137.471C113.659 138.559 113.189 139.633 111.859 140.376C109.88 141.481 108.298 140.641 107.394 139.026L104.699 134.213L106.965 132.947L109.407 137.308C109.999 138.364 110.558 138.547 111.706 137.906C112.794 137.299 113.069 136.69 112.426 135.543L110.018 131.243Z" fill="white"/>
<path d="M97.8789 136.798C100.023 136.06 101.325 136.489 101.997 138.434L103.206 141.931L104.515 141.48L105.215 143.506L103.841 143.98L104.043 146.049L102.112 146.715L101.451 144.803L99.1268 145.603L98.4265 143.577L100.751 142.776L99.6382 139.557C99.3897 138.838 99.1159 138.841 98.0521 139.207L97.0373 139.557L96.3314 137.514C96.696 137.297 97.3061 136.996 97.8789 136.798Z" fill="white"/>
<path d="M90.8229 138.56C92.3438 138.312 93.6539 138.922 93.9076 140.474C94.1251 141.805 93.3021 142.78 91.5695 143.342L88.7029 144.265L88.7475 144.538C88.912 145.545 89.4895 145.643 90.4977 145.479C91.5401 145.309 91.9028 144.952 91.7606 144.082L91.7299 143.894L94.1735 143.496L94.2042 143.684C94.5388 145.731 93.1699 147.338 90.7434 147.733C88.2144 148.145 86.6556 146.981 86.282 144.694L85.451 139.61L87.8262 139.223L88.0159 140.383L88.1184 140.367C88.4766 139.66 89.2337 138.819 90.8229 138.56ZM91.4975 141.077C91.4222 140.617 91.0383 140.521 90.2864 140.644C89.244 140.814 88.2121 141.262 88.4296 142.593L90.8289 141.817C91.3447 141.645 91.5561 141.435 91.4975 141.077Z" fill="white"/>
<path d="M78.001 139.65C80.874 139.73 82.3654 141.518 82.2884 144.266C82.2105 147.048 80.5169 148.765 77.6093 148.683C75.2902 148.619 73.6337 147.154 73.6938 145.012L73.6996 144.804L76.2957 144.877L76.2918 145.015C76.2642 146 76.8088 146.344 77.8819 146.374C79.128 146.408 79.681 145.836 79.7265 144.212C79.7715 142.604 79.2514 142.002 78.0053 141.967C76.9323 141.937 76.3692 142.25 76.3416 143.235L76.3378 143.373L73.7417 143.301L73.7475 143.093C73.8075 140.951 75.5953 139.582 78.001 139.65Z" fill="white"/>
<path d="M66.9616 138.527C69.1857 138.971 70.0924 139.999 69.6883 142.016L68.9617 145.643L70.32 145.915L69.899 148.017L68.4728 147.732L67.6002 149.62L65.5968 149.22L65.9941 147.237L63.5832 146.756L64.0042 144.654L66.4151 145.135L67.0839 141.796C67.2333 141.05 66.9956 140.914 65.8921 140.694L64.8395 140.484L65.2639 138.365C65.6883 138.361 66.3674 138.409 66.9616 138.527Z" fill="white"/>
<path d="M53.8212 133.921C56.8526 135.405 57.5989 137.772 56.326 140.365L53.2084 146.713L50.892 145.579L53.9944 139.262C54.7262 137.771 54.4415 137.016 52.7159 136.171C51.0059 135.334 50.2334 135.572 49.5017 137.062L46.3993 143.379L44.0674 142.238L47.185 135.889C48.458 133.297 50.7898 132.437 53.8212 133.921Z" fill="white"/>
<path d="M43.5 127.598C45.6628 129.27 46.0913 130.892 44.7979 132.559L44.7661 132.6L42.8086 131.087L43.0313 130.8C43.4235 130.294 43.2072 129.952 42.2079 129.179C41.3729 128.533 41.1406 128.55 40.8756 128.892C40.5893 129.261 40.7173 129.491 41.5073 130.365L42.3992 131.36C43.5635 132.654 43.8574 133.8 42.8715 135.071C41.8855 136.342 40.1455 136.44 38.188 134.926C36.5043 133.624 35.8324 131.836 37.0304 130.292L37.1789 130.1L39.1363 131.614L38.9879 131.806C38.6381 132.257 38.6389 132.651 39.5149 133.328C40.3363 133.963 40.6657 133.934 40.9202 133.606C41.1746 133.278 41.1256 133.087 40.4315 132.288L39.3736 131.054C38.1346 129.659 38.0412 128.537 38.9106 127.416C39.9071 126.132 41.5973 126.127 43.5 127.598Z" fill="white"/>
<path d="M27.9414 122.917L29.6891 122.725L29.7696 124.581L28.0122 124.537L27.9223 124.674L28.6367 126.271L26.8976 126.919L26.4083 125.188L26.238 125.169L24.9426 126.348L23.7922 124.898L25.2381 123.909L25.2578 123.739L23.7071 122.87L24.7473 121.341L26.1267 122.412L26.2811 122.356L26.6408 120.638L28.4447 121.129L27.8339 122.781L27.9414 122.917Z" fill="white"/>
<path d="M25.1288 104.067C26.4781 107.27 25.1131 110.094 21.7775 111.494C18.4419 112.895 15.4658 111.894 14.1166 108.692C12.7875 105.536 13.729 103.134 16.3783 102.022L16.522 101.961L17.596 104.511L17.5162 104.544C15.9841 105.188 15.7259 106.046 16.4375 107.736C17.196 109.536 18.1658 110.01 20.7034 108.945C23.2411 107.879 23.5799 106.855 22.8214 105.055C22.1098 103.366 21.3146 102.949 19.7825 103.593L19.7027 103.626L18.6287 101.077L18.7723 101.016C21.4216 99.9038 23.7997 100.912 25.1288 104.067Z" fill="white"/>
<path d="M21.4405 92.0789C21.9448 94.8338 20.5064 96.7833 17.7983 97.2775C15.0732 97.7748 13.0371 96.4593 12.5328 93.7044C12.0317 90.9665 13.4763 89.051 16.2014 88.5537C18.9095 88.0595 20.9394 89.341 21.4405 92.0789ZM19.1923 92.4892C18.9402 91.1117 18.308 90.735 16.6559 91.0365C14.9868 91.3411 14.5289 91.9167 14.7811 93.2941C15.0363 94.6886 15.6685 95.0653 17.3376 94.7607C18.9897 94.4592 19.4476 93.8836 19.1923 92.4892Z" fill="white"/>
<path d="M20.1727 82.0578L20.1231 84.6331L11.4158 84.4662L11.462 82.0637L12.9853 82.0929L12.9873 81.9892C12.0096 81.5037 11.3178 80.5567 11.347 79.0357C11.3906 76.7715 12.9152 75.8325 14.7675 75.868L20.2897 75.9739L20.2398 78.5665L15.237 78.4706C14.0252 78.4473 13.5848 78.8366 13.5595 80.1501C13.5356 81.3946 13.9234 81.938 15.2391 81.9632L20.1727 82.0578Z" fill="white"/>
<path d="M21.4849 68.7958C21.045 71.0175 20.0182 71.925 17.9969 71.526L14.3621 70.8086L14.0935 72.1653L11.9873 71.7497L12.2693 70.3251L10.3761 69.458L10.7722 67.4569L12.7595 67.8491L13.2363 65.4409L15.3425 65.8566L14.8657 68.2648L18.2118 68.9252C18.9592 69.0727 19.0945 68.8351 19.3127 67.7327L19.5209 66.6813L21.6441 67.1003C21.6484 67.5241 21.6024 68.2023 21.4849 68.7958Z" fill="white"/>
<path d="M23.5182 61.8068C22.9667 63.2434 21.7792 64.0664 20.308 63.5033C19.047 63.0207 18.618 61.8197 19.0039 60.042L19.6494 57.1047L19.3908 57.0057C18.4369 56.6406 18.0608 57.0891 17.6951 58.0415C17.3171 59.0261 17.4432 59.5187 18.2677 59.8343L18.4456 59.9024L17.5594 62.2106L17.3815 62.1426C15.4415 61.4001 14.7406 59.4101 15.6206 57.1179C16.5378 54.7289 18.3307 53.971 20.4971 54.8002L25.3149 56.6441L24.4534 58.8878L23.3541 58.467L23.3169 58.5639C23.7478 59.2287 24.0946 60.3056 23.5182 61.8068ZM21.0002 61.1208C21.4367 61.2878 21.7124 61.0046 21.985 60.2943C22.3631 59.3097 22.4948 58.1937 21.2338 57.7111L20.6971 60.1716C20.5858 60.703 20.6607 60.9908 21.0002 61.1208Z" fill="white"/>
<path d="M29.0046 50.2562C27.4853 52.6921 25.1863 53.0752 22.8495 51.6221C20.4832 50.1509 19.8536 47.8247 21.3913 45.3594C22.6177 43.393 24.7198 42.7043 26.5423 43.8375L26.7186 43.9471L25.3458 46.1483L25.2282 46.0752C24.3904 45.5543 23.8183 45.8502 23.2508 46.76C22.5919 47.8166 22.8078 48.5822 24.1894 49.4412C25.5562 50.2911 26.3396 50.1469 26.9986 49.0903C27.5661 48.1805 27.5797 47.5373 26.742 47.0164L26.6244 46.9433L27.9973 44.7422L28.1737 44.8518C29.9961 45.985 30.2768 48.2165 29.0046 50.2562Z" fill="white"/>
<path d="M35.5612 41.2986C34.0544 42.9912 32.7086 43.254 31.1686 41.8873L28.3993 39.4295L27.4791 40.4632L25.8744 39.039L26.8406 37.9537L25.6487 36.2482L27.006 34.7236L28.52 36.0673L30.1534 34.2325L31.7581 35.6567L30.1247 37.4914L32.674 39.7539C33.2434 40.2593 33.4807 40.1229 34.2283 39.283L34.9415 38.4819L36.5591 39.9175C36.3477 40.2851 35.9638 40.8464 35.5612 41.2986Z" fill="white"/>
<path d="M46.1447 32.2951C43.3373 34.1677 40.9117 33.6234 39.3055 31.2229L35.3717 25.3438L37.5168 23.9129L41.4314 29.7633C42.3547 31.1432 43.152 31.2767 44.75 30.2108C46.3337 29.1544 46.5154 28.3679 45.5921 26.988L41.6775 21.1376L43.837 19.6971L47.7708 25.5763C49.377 27.9768 48.952 30.4224 46.1447 32.2951Z" fill="white"/>
<path d="M56.8064 26.5566C54.2713 27.5829 52.652 27.1379 51.8582 25.1834L51.8387 25.1353L54.1332 24.2064L54.2698 24.5429C54.5105 25.1356 54.9156 25.1209 56.0869 24.6467C57.0656 24.2504 57.1675 24.0413 57.0049 23.6408C56.8292 23.2082 56.5656 23.2031 55.4125 23.446L54.1019 23.7154C52.3964 24.0701 51.2567 23.7481 50.6516 22.2582C50.0466 20.7683 50.8366 19.2173 53.1311 18.2884C55.1047 17.4894 56.9902 17.808 57.7254 19.6182L57.8165 19.8425L55.522 20.7714L55.4309 20.5471C55.2162 20.0185 54.8745 19.8211 53.8476 20.2368C52.8849 20.6265 52.7448 20.9257 52.901 21.3102C53.0571 21.6947 53.2471 21.7484 54.2879 21.5509L55.8876 21.2577C57.7185 20.8895 58.7368 21.3727 59.2703 22.6863C59.8818 24.1922 59.0367 25.6536 56.8064 26.5566Z" fill="white"/>
<path d="M68.6835 15.4973L67.9669 17.1004L66.3223 16.2333L67.2469 14.7405L67.1735 14.5937L65.4328 14.4038L65.7504 12.5779L67.4933 13.0294L67.5963 12.8925L67.2306 11.1809L69.0649 10.921L69.1905 12.6667L69.3276 12.7695L70.8612 11.8713L71.6579 13.5394L70.0363 14.1881L70.0068 14.3495L71.3107 15.5266L69.975 16.8333L68.8549 15.473L68.6835 15.4973Z" fill="white"/>
<defs>
<clipPath id="clip0_97_11067">
<rect width="36" height="36" fill="white" transform="translate(62 62)"/>
</clipPath>
</defs>
</svg>
