<svg width="24" height="24" viewBox="0 0 24 24" fill="none" xmlns="http://www.w3.org/2000/svg">
<g clip-path="url(#clip0_249_28)">
<path d="M23.1429 18V21.4286C23.1429 21.8832 22.9622 22.3193 22.6408 22.6408C22.3193 22.9622 21.8832 23.1429 21.4286 23.1429H18" stroke="white" stroke-width="1.5" stroke-linecap="round" stroke-linejoin="round"/>
<path d="M18 0.855469H21.4286C21.8832 0.855469 22.3193 1.03608 22.6408 1.35757C22.9622 1.67906 23.1429 2.1151 23.1429 2.56975V5.99833" stroke="white" stroke-width="1.5" stroke-linecap="round" stroke-linejoin="round"/>
<path d="M0.857178 5.99833V2.56975C0.857178 2.1151 1.03779 1.67906 1.35928 1.35757C1.68077 1.03608 2.11681 0.855469 2.57146 0.855469H6.00003" stroke="white" stroke-width="1.5" stroke-linecap="round" stroke-linejoin="round"/>
<path d="M6.00003 23.1429H2.57146C2.11681 23.1429 1.68077 22.9622 1.35928 22.6408C1.03779 22.3193 0.857178 21.8832 0.857178 21.4286V18" stroke="white" stroke-width="1.5" stroke-linecap="round" stroke-linejoin="round"/>
<path d="M19.7143 11.9983C19.7143 11.9983 16.2858 17.1412 12.0001 17.1412C7.71434 17.1412 4.28577 11.9983 4.28577 11.9983C4.28577 11.9983 7.71434 6.85547 12.0001 6.85547C16.2858 6.85547 19.7143 11.9983 19.7143 11.9983Z" stroke="white" stroke-width="1.5" stroke-linecap="round" stroke-linejoin="round"/>
<path d="M12.0001 12.8549C12.4735 12.8549 12.8572 12.4712 12.8572 11.9978C12.8572 11.5244 12.4735 11.1406 12.0001 11.1406C11.5267 11.1406 11.1429 11.5244 11.1429 11.9978C11.1429 12.4712 11.5267 12.8549 12.0001 12.8549Z" stroke="white" stroke-width="1.5" stroke-linecap="round" stroke-linejoin="round"/>
</g>
<defs>
<clipPath id="clip0_249_28">
<rect width="24" height="24" fill="white"/>
</clipPath>
</defs>
</svg>
