<svg width="30" height="30" viewBox="0 0 30 30" fill="none" xmlns="http://www.w3.org/2000/svg">
<g clip-path="url(#clip0_97_19785)">
<path d="M26.7857 1.07227H3.21427C2.0308 1.07227 1.07141 2.03166 1.07141 3.21512V9.64369C1.07141 10.8272 2.0308 11.7866 3.21427 11.7866H26.7857C27.9692 11.7866 28.9286 10.8272 28.9286 9.64369V3.21512C28.9286 2.03166 27.9692 1.07227 26.7857 1.07227Z" stroke="white" stroke-width="1.5" stroke-linecap="round" stroke-linejoin="round"/>
<path d="M12.8572 6.42969H17.1429" stroke="white" stroke-width="1.5" stroke-linecap="round" stroke-linejoin="round"/>
<path d="M3.21427 11.7871C2.64595 11.7871 2.1009 12.0129 1.69904 12.4147C1.29718 12.8166 1.07141 13.3616 1.07141 13.93V20.3585C1.07141 20.9269 1.29718 21.4719 1.69904 21.8738C2.1009 22.2756 2.64595 22.5014 3.21427 22.5014H26.7857C27.354 22.5014 27.8991 22.2756 28.3009 21.8738C28.7028 21.4719 28.9286 20.9269 28.9286 20.3585V13.93C28.9286 13.3616 28.7028 12.8166 28.3009 12.4147C27.8991 12.0129 27.354 11.7871 26.7857 11.7871" stroke="white" stroke-width="1.5" stroke-linecap="round" stroke-linejoin="round"/>
<path d="M6.9643 6.96596C6.66844 6.96596 6.42859 6.72611 6.42859 6.43025C6.42859 6.13438 6.66844 5.89453 6.9643 5.89453" stroke="white" stroke-width="1.5" stroke-linecap="round" stroke-linejoin="round"/>
<path d="M6.96423 6.96596C7.2601 6.96596 7.49995 6.72611 7.49995 6.43025C7.49995 6.13438 7.2601 5.89453 6.96423 5.89453" stroke="white" stroke-width="1.5" stroke-linecap="round" stroke-linejoin="round"/>
<path d="M6.9643 17.6789C6.66844 17.6789 6.42859 17.439 6.42859 17.1431C6.42859 16.8473 6.66844 16.6074 6.9643 16.6074" stroke="white" stroke-width="1.5" stroke-linecap="round" stroke-linejoin="round"/>
<path d="M6.96423 17.6789C7.2601 17.6789 7.49995 17.439 7.49995 17.1431C7.49995 16.8473 7.2601 16.6074 6.96423 16.6074" stroke="white" stroke-width="1.5" stroke-linecap="round" stroke-linejoin="round"/>
<path d="M12.8572 17.1445H17.1429" stroke="white" stroke-width="1.5" stroke-linecap="round" stroke-linejoin="round"/>
<path d="M15 22.5V28.9286" stroke="white" stroke-width="1.5" stroke-linecap="round" stroke-linejoin="round"/>
<path d="M4.28564 28.9297H25.7142" stroke="white" stroke-width="1.5" stroke-linecap="round" stroke-linejoin="round"/>
</g>
<defs>
<clipPath id="clip0_97_19785">
<rect width="30" height="30" fill="white"/>
</clipPath>
</defs>
</svg>
