<svg width="24" height="24" viewBox="0 0 24 24" fill="none" xmlns="http://www.w3.org/2000/svg">
<g clip-path="url(#clip0_97_20913)">
<path d="M7.71432 22.2866C11.5014 22.2866 14.5715 19.2165 14.5715 15.4294C14.5715 11.6423 11.5014 8.57227 7.71432 8.57227C3.92723 8.57227 0.857178 11.6423 0.857178 15.4294C0.857178 19.2165 3.92723 22.2866 7.71432 22.2866Z" stroke="white" stroke-width="1.5" stroke-linecap="round" stroke-linejoin="round"/>
<path d="M16.2857 22.2866C20.0728 22.2866 23.1429 19.2165 23.1429 15.4294C23.1429 11.6423 20.0728 8.57227 16.2857 8.57227C12.4986 8.57227 9.42859 11.6423 9.42859 15.4294C9.42859 19.2165 12.4986 22.2866 16.2857 22.2866Z" stroke="white" stroke-width="1.5" stroke-linecap="round" stroke-linejoin="round"/>
<path d="M12.0001 15.4291C15.7872 15.4291 18.8572 12.3591 18.8572 8.57199C18.8572 4.78489 15.7872 1.71484 12.0001 1.71484C8.21299 1.71484 5.14294 4.78489 5.14294 8.57199C5.14294 12.3591 8.21299 15.4291 12.0001 15.4291Z" stroke="white" stroke-width="1.5" stroke-linecap="round" stroke-linejoin="round"/>
</g>
<defs>
<clipPath id="clip0_97_20913">
<rect width="24" height="24" fill="white"/>
</clipPath>
</defs>
</svg>
