<svg width="24" height="24" viewBox="0 0 24 24" fill="none" xmlns="http://www.w3.org/2000/svg">
<path d="M18.2399 2.63672H5.75988C5.47216 2.64462 5.19034 2.72012 4.9372 2.85711C4.68406 2.9941 4.46672 3.18874 4.30274 3.42529L1.18274 7.74529C0.951062 8.07267 0.835361 8.46805 0.853996 8.86869C0.87263 9.26932 1.02453 9.65225 1.28559 9.95672L10.6456 20.7396C10.8058 20.9461 11.0112 21.1132 11.2459 21.2281C11.4806 21.3431 11.7385 21.4028 11.9999 21.4028C12.2612 21.4028 12.5191 21.3431 12.7539 21.2281C12.9886 21.1132 13.1939 20.9461 13.3542 20.7396L22.7142 9.95672C22.9752 9.65225 23.1271 9.26932 23.1458 8.86869C23.1644 8.46805 23.0487 8.07267 22.817 7.74529L19.697 3.42529C19.533 3.18874 19.3157 2.9941 19.0626 2.85711C18.8094 2.72012 18.5276 2.64462 18.2399 2.63672V2.63672Z" stroke="white" stroke-width="1.5" stroke-linecap="round" stroke-linejoin="round"/>
<path d="M11.1084 2.62109L6.92554 9.10109L11.9998 21.3582" stroke="white" stroke-width="1.5" stroke-linecap="round" stroke-linejoin="round"/>
<path d="M12.9429 2.62109L17.1086 9.10109L12 21.3582" stroke="white" stroke-width="1.5" stroke-linecap="round" stroke-linejoin="round"/>
<path d="M0.891357 9.10156H23.1085" stroke="white" stroke-width="1.5" stroke-linecap="round" stroke-linejoin="round"/>
</svg>
