<svg width="100" height="100" viewBox="0 0 100 100" fill="none" xmlns="http://www.w3.org/2000/svg">
<path d="M34.6151 46.4619H21.1534C19.5507 46.4619 18.1882 45.9011 17.0663 44.7792C15.945 43.6573 15.3837 42.2952 15.3837 40.6921V38.7699C15.3837 34.5228 16.8863 30.8974 19.8915 27.8922C22.8965 24.8881 26.5226 23.3854 30.7692 23.3854H34.6151C35.6566 23.3854 36.5577 23.0046 37.3192 22.2437C38.0804 21.4823 38.4609 20.5812 38.4609 19.5395V11.8465C38.4609 10.805 38.0802 9.90304 37.3192 9.1417C36.5579 8.38141 35.6568 8 34.6151 8H30.7692C26.6021 8 22.6266 8.81207 18.8401 10.4339C15.054 12.0568 11.7792 14.2505 9.01444 17.0153C6.24987 19.7788 4.05677 23.0539 2.43411 26.8404C0.811439 30.6265 0 34.603 0 38.7697V81.0764C0 84.2832 1.12128 87.0061 3.36489 89.2506C5.60872 91.4938 8.33372 92.6153 11.5386 92.6153H34.6166C37.8213 92.6153 40.5454 91.4938 42.7895 89.2506C45.0326 87.0061 46.1546 84.2832 46.1546 81.0764V58.0005C46.1546 54.7943 45.0326 52.0714 42.788 49.8268C40.545 47.5838 37.8198 46.4619 34.6151 46.4619Z" fill="white" fill-opacity="0.2"/>
<path d="M96.6366 49.8268C94.3936 47.5838 91.6692 46.4619 88.4637 46.4619H75.0022C73.4004 46.4619 72.0366 45.9011 70.9166 44.7792C69.7943 43.6573 69.2339 42.2952 69.2339 40.6921V38.7699C69.2339 34.5228 70.7366 30.8974 73.7403 27.8922C76.7442 24.8881 80.3701 23.3854 84.6189 23.3854H88.4639C89.5056 23.3854 90.4073 23.0046 91.1682 22.2437C91.9287 21.4823 92.3108 20.5812 92.3108 19.5395V11.8465C92.3108 10.805 91.929 9.90304 91.1682 9.1417C90.4075 8.38141 89.5058 8 88.4639 8H84.6189C80.4495 8 76.4748 8.81207 72.6872 10.4339C68.9018 12.0568 65.628 14.2505 62.8632 17.0153C60.0985 19.7788 57.9043 23.0539 56.2823 26.8404C54.66 30.6265 53.8475 34.603 53.8475 38.7697V81.0764C53.8475 84.2832 54.9699 87.0061 57.2128 89.2506C59.456 91.4938 62.1804 92.6153 65.3857 92.6153H88.4624C91.668 92.6153 94.3921 91.4938 96.6351 89.2506C98.8798 87.0061 99.9998 84.2832 99.9998 81.0764V58.0005C100 54.7941 98.8798 52.0714 96.6366 49.8268Z" fill="white" fill-opacity="0.2"/>
</svg>
