<svg width="50" height="50" viewBox="0 0 50 50" fill="none" xmlns="http://www.w3.org/2000/svg">
<g clip-path="url(#clip0_97_20126)">
<path d="M11.0811 30.2158L9.34062 36.7131L2.97939 36.8477C1.07832 33.3216 0 29.2873 0 25.0002C0 20.8546 1.0082 16.9452 2.79531 13.5029H2.79668L8.45996 14.5412L10.9408 20.1705C10.4216 21.6843 10.1386 23.3093 10.1386 25.0002C10.1388 26.8354 10.4712 28.5937 11.0811 30.2158Z" fill="#FBBB00"/>
<path d="M49.5631 20.3301C49.8502 21.8424 50 23.4042 50 25.0004C50 26.7902 49.8118 28.5361 49.4533 30.2202C48.2363 35.951 45.0563 40.9551 40.6511 44.4963L40.6498 44.4949L33.5166 44.131L32.507 37.8287C35.43 36.1145 37.7144 33.4317 38.9177 30.2202H25.5496V20.3301H39.1127H49.5631Z" fill="#518EF8"/>
<path d="M40.6498 44.4946L40.6512 44.496C36.3669 47.9396 30.9245 50.0001 25.0001 50.0001C15.4795 50.0001 7.20205 44.6787 2.97949 36.8477L11.0812 30.2158C13.1924 35.8504 18.6278 39.8614 25.0001 39.8614C27.7391 39.8614 30.3051 39.121 32.5069 37.8284L40.6498 44.4946Z" fill="#28B446"/>
<path d="M40.9575 5.75547L32.8586 12.3859C30.5798 10.9615 27.886 10.1387 25.0001 10.1387C18.4836 10.1387 12.9465 14.3337 10.941 20.1703L2.79678 13.5027H2.79541C6.95615 5.48076 15.338 0 25.0001 0C31.066 0 36.6278 2.16074 40.9575 5.75547Z" fill="#FC3636"/>
</g>
<defs>
<clipPath id="clip0_97_20126">
<rect width="50" height="50" fill="white"/>
</clipPath>
</defs>
</svg>
