<svg width="60" height="60" viewBox="0 0 60 60" fill="none" xmlns="http://www.w3.org/2000/svg">
<path d="M39.231 32.3057H47.308C48.2696 32.3057 49.0871 32.6421 49.7602 33.3153C50.433 33.9884 50.7698 34.8057 50.7698 35.7675V36.9209C50.7698 39.4691 49.8682 41.6444 48.0651 43.4475C46.2621 45.25 44.0865 46.1516 41.5385 46.1516H39.231C38.6061 46.1516 38.0654 46.3801 37.6085 46.8366C37.1518 47.2934 36.9234 47.8341 36.9234 48.4591V53.0749C36.9234 53.6998 37.1519 54.241 37.6085 54.6978C38.0653 55.154 38.6059 55.3828 39.231 55.3828H41.5385C44.0387 55.3828 46.424 54.8956 48.6959 53.9225C50.9676 52.9487 52.9325 51.6325 54.5913 49.9736C56.2501 48.3155 57.5659 46.3505 58.5395 44.0786C59.5131 41.8069 60 39.421 60 36.921V11.537C60 9.6129 59.3272 7.97916 57.9811 6.63248C56.6348 5.28656 54.9998 4.61366 53.0768 4.61366H39.2301C37.3072 4.61366 35.6727 5.28656 34.3263 6.63248C32.9804 7.97916 32.3073 9.6129 32.3073 11.537V25.3825C32.3073 27.3062 32.9804 28.94 34.3272 30.2868C35.673 31.6325 37.3081 32.3057 39.231 32.3057Z" fill="#FC5220"/>
<path d="M2.01811 30.2868C3.3639 31.6325 4.99852 32.3057 6.92185 32.3057H14.9987C15.9598 32.3057 16.7781 32.6421 17.4501 33.3153C18.1235 33.9884 18.4597 34.8057 18.4597 35.7675V36.9209C18.4597 39.4691 17.5581 41.6444 15.7559 43.4475C13.9535 45.25 11.778 46.1516 9.22874 46.1516H6.92173C6.2967 46.1516 5.75566 46.3801 5.2991 46.8366C4.8428 47.2934 4.61358 47.8341 4.61358 48.4591V53.0749C4.61358 53.6998 4.84268 54.241 5.2991 54.6978C5.75553 55.154 6.29657 55.3828 6.92173 55.3828H9.22874C11.7304 55.3828 14.1152 54.8956 16.3877 53.9225C18.659 52.9487 20.6232 51.6325 22.2821 49.9736C23.941 48.3155 25.2575 46.3505 26.2307 44.0786C27.204 41.8069 27.6915 39.421 27.6915 36.921V11.537C27.6915 9.6129 27.0181 7.97916 25.6723 6.63248C24.3264 5.28656 22.6918 4.61366 20.7686 4.61366H6.92261C4.99928 4.61366 3.36478 5.28656 2.019 6.63248C0.672195 7.97916 0.00018692 9.6129 0.00018692 11.537V25.3825C6.10352e-05 27.3063 0.672197 28.94 2.01811 30.2868Z" fill="#FC5220"/>
</svg>
