<svg width="24" height="24" viewBox="0 0 24 24" fill="none" xmlns="http://www.w3.org/2000/svg">
<g clip-path="url(#clip0_359_1583)">
<path d="M7.71456 22.2857C11.5017 22.2857 14.5717 19.2156 14.5717 15.4286C14.5717 11.6415 11.5017 8.57141 7.71456 8.57141C3.92747 8.57141 0.857422 11.6415 0.857422 15.4286C0.857422 19.2156 3.92747 22.2857 7.71456 22.2857Z" stroke="#FC5220" stroke-width="1.5" stroke-linecap="round" stroke-linejoin="round"/>
<path d="M16.2868 22.2856C20.0739 22.2856 23.144 19.2156 23.144 15.4285C23.144 11.6414 20.0739 8.57135 16.2868 8.57135C12.4997 8.57135 9.42969 11.6414 9.42969 15.4285C9.42969 19.2156 12.4997 22.2856 16.2868 22.2856Z" stroke="#FC5220" stroke-width="1.5" stroke-linecap="round" stroke-linejoin="round"/>
<path d="M11.9997 15.4286C15.7868 15.4286 18.8569 12.3585 18.8569 8.57144C18.8569 4.78434 15.7868 1.71429 11.9997 1.71429C8.21263 1.71429 5.14258 4.78434 5.14258 8.57144C5.14258 12.3585 8.21263 15.4286 11.9997 15.4286Z" stroke="#FC5220" stroke-width="1.5" stroke-linecap="round" stroke-linejoin="round"/>
</g>
<defs>
<clipPath id="clip0_359_1583">
<rect width="24" height="24" fill="white"/>
</clipPath>
</defs>
</svg>
