<svg width="29" height="29" viewBox="0 0 29 29" fill="none" xmlns="http://www.w3.org/2000/svg">
<g clip-path="url(#clip0_453_31)">
<path d="M3.08644 12.3423H5.14358C5.41638 12.3423 5.678 12.4507 5.87089 12.6435C6.06379 12.8364 6.17215 13.0981 6.17215 13.3709V18.5137C6.17215 18.7865 6.06379 19.0481 5.87089 19.241C5.678 19.4339 5.41638 19.5423 5.14358 19.5423H3.08644C2.54085 19.5423 2.01761 19.3256 1.63182 18.9398C1.24603 18.554 1.0293 18.0307 1.0293 17.4851V14.3994C1.0293 13.8538 1.24603 13.3306 1.63182 12.9448C2.01761 12.559 2.54085 12.3423 3.08644 12.3423V12.3423Z" stroke="white" stroke-width="1.5" stroke-linecap="round" stroke-linejoin="round"/>
<path d="M25.7163 19.5422H23.6592C23.3864 19.5422 23.1247 19.4339 22.9318 19.241C22.7389 19.0481 22.6306 18.7865 22.6306 18.5137V13.3708C22.6306 13.098 22.7389 12.8364 22.9318 12.6435C23.1247 12.4506 23.3864 12.3422 23.6592 12.3422H25.7163C26.2619 12.3422 26.7851 12.559 27.1709 12.9448C27.5567 13.3305 27.7734 13.8538 27.7734 14.3994V17.4851C27.7734 18.0307 27.5567 18.5539 27.1709 18.9397C26.7851 19.3255 26.2619 19.5422 25.7163 19.5422V19.5422Z" stroke="white" stroke-width="1.5" stroke-linecap="round" stroke-linejoin="round"/>
<path d="M19.5449 25.1994C20.6361 25.1994 21.6826 24.7659 22.4542 23.9943C23.2257 23.2228 23.6592 22.1763 23.6592 21.0851V19.5422" stroke="white" stroke-width="1.5" stroke-linecap="round" stroke-linejoin="round"/>
<path d="M16.9716 22.6266C17.6536 22.6266 18.3076 22.8975 18.7899 23.3797C19.2721 23.862 19.543 24.516 19.543 25.198C19.543 25.88 19.2721 26.5341 18.7899 27.0163C18.3076 27.4985 17.6536 27.7694 16.9716 27.7694H13.8859C13.2039 27.7694 12.5498 27.4985 12.0676 27.0163C11.5854 26.5341 11.3145 25.88 11.3145 25.198C11.3145 24.516 11.5854 23.862 12.0676 23.3797C12.5498 22.8975 13.2039 22.6266 13.8859 22.6266H16.9716Z" stroke="white" stroke-width="1.5" stroke-linecap="round" stroke-linejoin="round"/>
<path d="M5.14453 12.3409V10.2838C5.14453 7.82861 6.11983 5.47402 7.85589 3.73797C9.59194 2.00191 11.9465 1.02661 14.4017 1.02661C16.8568 1.02661 19.2114 2.00191 20.9475 3.73797C22.6835 5.47402 23.6588 7.82861 23.6588 10.2838V12.3409" stroke="white" stroke-width="1.5" stroke-linecap="round" stroke-linejoin="round"/>
<path d="M11.3145 8.22656V11.3123" stroke="white" stroke-width="1.5" stroke-linecap="round" stroke-linejoin="round"/>
<path d="M17.4863 8.22656V11.3123" stroke="white" stroke-width="1.5" stroke-linecap="round" stroke-linejoin="round"/>
<path d="M11.3145 15.4266C11.3145 18.1626 17.4859 18.1626 17.4859 15.4266" stroke="white" stroke-width="1.5" stroke-linecap="round" stroke-linejoin="round"/>
</g>
<defs>
<clipPath id="clip0_453_31">
<rect width="28.8" height="28.8" fill="white"/>
</clipPath>
</defs>
</svg>
