<svg width="24" height="24" viewBox="0 0 24 24" fill="none" xmlns="http://www.w3.org/2000/svg">
<g clip-path="url(#clip0_363_1696)">
<path d="M21.4289 0.857178H2.57171C1.62493 0.857178 0.857422 1.62469 0.857422 2.57146V18.8572C0.857422 19.804 1.62493 20.5715 2.57171 20.5715H21.4289C22.3756 20.5715 23.1431 19.804 23.1431 18.8572V2.57146C23.1431 1.62469 22.3756 0.857178 21.4289 0.857178Z" stroke="white" stroke-width="1.5" stroke-linecap="round" stroke-linejoin="round"/>
<path d="M14.5713 13.7144C16.2281 13.7144 17.5713 12.3712 17.5713 10.7144C17.5713 9.0575 16.2281 7.71436 14.5713 7.71436C12.9144 7.71436 11.5713 9.0575 11.5713 10.7144C11.5713 12.3712 12.9144 13.7144 14.5713 13.7144Z" stroke="white" stroke-width="1.5" stroke-linecap="round" stroke-linejoin="round"/>
<path d="M14.5713 5.57153V7.71439" stroke="white" stroke-width="1.5" stroke-linecap="round" stroke-linejoin="round"/>
<path d="M14.5713 13.7144V15.8572" stroke="white" stroke-width="1.5" stroke-linecap="round" stroke-linejoin="round"/>
<path d="M19.7141 10.7144H17.5713" stroke="white" stroke-width="1.5" stroke-linecap="round" stroke-linejoin="round"/>
<path d="M11.5716 10.7144H9.42871" stroke="white" stroke-width="1.5" stroke-linecap="round" stroke-linejoin="round"/>
<path d="M18.2058 7.08008L16.6973 8.58865" stroke="white" stroke-width="1.5" stroke-linecap="round" stroke-linejoin="round"/>
<path d="M12.4461 12.8401L10.9375 14.3487" stroke="white" stroke-width="1.5" stroke-linecap="round" stroke-linejoin="round"/>
<path d="M18.2058 14.3487L16.6973 12.8401" stroke="white" stroke-width="1.5" stroke-linecap="round" stroke-linejoin="round"/>
<path d="M12.4461 8.58865L10.9375 7.08008" stroke="white" stroke-width="1.5" stroke-linecap="round" stroke-linejoin="round"/>
<path d="M5.14355 7.71436V13.7144" stroke="white" stroke-width="1.5" stroke-linecap="round" stroke-linejoin="round"/>
<path d="M3.42871 20.5715V23.143" stroke="white" stroke-width="1.5" stroke-linecap="round" stroke-linejoin="round"/>
<path d="M19.7148 20.5715V23.143" stroke="white" stroke-width="1.5" stroke-linecap="round" stroke-linejoin="round"/>
</g>
<defs>
<clipPath id="clip0_363_1696">
<rect width="24" height="24" fill="white"/>
</clipPath>
</defs>
</svg>
