<svg width="16" height="16" viewBox="0 0 16 16" fill="none" xmlns="http://www.w3.org/2000/svg">
<g clip-path="url(#clip0_453_46)">
<path d="M9.88696 14.4517C10.5488 14.8793 11.3374 15.0657 12.1203 14.9794C12.9031 14.8932 13.6325 14.5396 14.1857 13.9781L14.6693 13.5045C14.8813 13.2873 15 12.9956 15 12.6919C15 12.3881 14.8813 12.0965 14.6693 11.8793L12.6166 9.845C12.4016 9.63333 12.1121 9.51473 11.8106 9.51473C11.5091 9.51473 11.2197 9.63333 11.0046 9.845V9.845C10.7878 10.0573 10.4965 10.1762 10.1932 10.1762C9.88996 10.1762 9.59873 10.0573 9.38186 9.845L6.15783 6.61601C6.05028 6.50986 5.96487 6.38335 5.90658 6.24385C5.84828 6.10434 5.81826 5.95462 5.81826 5.80338C5.81826 5.65215 5.84828 5.50243 5.90658 5.36292C5.96487 5.22342 6.05028 5.09691 6.15783 4.99076V4.99076C6.36917 4.77538 6.4876 4.48548 6.4876 4.18351C6.4876 3.88153 6.36917 3.59164 6.15783 3.37626L4.11595 1.33124C3.89909 1.11889 3.60785 1 3.30457 1C3.00128 1 2.71005 1.11889 2.49319 1.33124L2.02033 1.81558C1.45972 2.36962 1.10668 3.10008 1.02056 3.88415C0.934445 4.66821 1.12051 5.45807 1.54747 6.1209C3.7721 9.40449 6.60268 12.2321 9.88696 14.4517V14.4517Z" stroke="#FC5220" stroke-width="1.5" stroke-linecap="round" stroke-linejoin="round"/>
</g>
<defs>
<clipPath id="clip0_453_46">
<rect width="16" height="16" fill="white"/>
</clipPath>
</defs>
</svg>
