<svg width="24" height="24" viewBox="0 0 24 24" fill="none" xmlns="http://www.w3.org/2000/svg">
<g clip-path="url(#clip0_97_20533)">
<path d="M12 17.1777V18.9092" stroke="white" stroke-width="1.5" stroke-linecap="round" stroke-linejoin="round"/>
<path d="M12 8.58887V10.2003" stroke="white" stroke-width="1.5" stroke-linecap="round" stroke-linejoin="round"/>
<path d="M11.9999 23.1257C17.9999 23.1257 22.2857 20.9999 22.2857 16.2685C22.2857 11.1257 19.7142 7.69709 14.5714 5.12566L16.5942 2.51995C16.697 2.34899 16.7527 2.15389 16.7558 1.95444C16.7589 1.75499 16.7092 1.55827 16.6117 1.38423C16.5142 1.21019 16.3725 1.06501 16.2008 0.963401C16.0292 0.861796 15.8337 0.807378 15.6342 0.805664H8.36566C8.1662 0.807378 7.97073 0.861796 7.79907 0.963401C7.62741 1.06501 7.48567 1.21019 7.38821 1.38423C7.29074 1.55827 7.24102 1.75499 7.24409 1.95444C7.24715 2.15389 7.3029 2.34899 7.40566 2.51995L9.42852 5.14281C4.28566 7.73138 1.71423 11.1599 1.71423 16.3028C1.71423 20.9999 5.99995 23.1257 11.9999 23.1257Z" stroke="white" stroke-width="1.5" stroke-linecap="round" stroke-linejoin="round"/>
<path d="M10.2857 16.3887C10.4948 16.637 10.7581 16.8341 11.0553 16.9649C11.3524 17.0956 11.6756 17.1566 12 17.143C12.4957 17.1768 12.9853 17.0171 13.3658 16.6974C13.7462 16.3777 13.9879 15.9229 14.04 15.4287C13.9879 14.9345 13.7462 14.4798 13.3658 14.1601C12.9853 13.8404 12.4957 13.6807 12 13.7145C11.5042 13.7483 11.0146 13.5885 10.6342 13.2688C10.2537 12.9491 10.0121 12.4944 9.95996 12.0002C10.0079 11.5042 10.2484 11.0469 10.6298 10.7263C11.0113 10.4058 11.5032 10.2477 12 10.2859C12.3186 10.2664 12.6376 10.3178 12.9341 10.4363C13.2305 10.5549 13.4969 10.7377 13.7142 10.9716" stroke="white" stroke-width="1.5" stroke-linecap="round" stroke-linejoin="round"/>
</g>
<defs>
<clipPath id="clip0_97_20533">
<rect width="24" height="24" fill="white"/>
</clipPath>
</defs>
</svg>
