<svg width="24" height="24" viewBox="0 0 24 24" fill="none" xmlns="http://www.w3.org/2000/svg">
<path d="M18.24 2.64044H5.76C5.47228 2.64834 5.19046 2.72384 4.93732 2.86083C4.68419 2.99782 4.46684 3.19246 4.30286 3.42901L1.18286 7.74901C0.951184 8.0764 0.835484 8.47178 0.854118 8.87241C0.872752 9.27304 1.02465 9.65598 1.28572 9.96044L10.6457 20.7433C10.806 20.9498 11.0113 21.1169 11.246 21.2318C11.4807 21.3468 11.7386 21.4065 12 21.4065C12.2614 21.4065 12.5193 21.3468 12.754 21.2318C12.9887 21.1169 13.194 20.9498 13.3543 20.7433L22.7143 9.96044C22.9754 9.65598 23.1273 9.27304 23.1459 8.87241C23.1645 8.47178 23.0488 8.0764 22.8171 7.74901L19.6971 3.42901C19.5332 3.19246 19.3158 2.99782 19.0627 2.86083C18.8095 2.72384 18.5277 2.64834 18.24 2.64044V2.64044Z" stroke="white" stroke-width="1.5" stroke-linecap="round" stroke-linejoin="round"/>
<path d="M11.1085 2.62286L6.92566 9.10286L11.9999 21.36" stroke="white" stroke-width="1.5" stroke-linecap="round" stroke-linejoin="round"/>
<path d="M12.9429 2.62286L17.1086 9.10286L12 21.36" stroke="white" stroke-width="1.5" stroke-linecap="round" stroke-linejoin="round"/>
<path d="M0.891724 9.10333H23.1089" stroke="white" stroke-width="1.5" stroke-linecap="round" stroke-linejoin="round"/>
</svg>
