<svg width="24" height="24" viewBox="0 0 24 24" fill="none" xmlns="http://www.w3.org/2000/svg">
<g clip-path="url(#clip0_363_1687)">
<path d="M11.1436 18.8572H12.8578" stroke="white" stroke-width="1.5" stroke-linecap="round" stroke-linejoin="round"/>
<path d="M17.1436 8.57139V5.14282" stroke="white" stroke-width="1.5" stroke-linecap="round" stroke-linejoin="round"/>
<path d="M20.572 3.00003C20.572 3.28144 20.5166 3.56009 20.4089 3.82007C20.3012 4.08005 20.1433 4.31628 19.9444 4.51526C19.7454 4.71425 19.5091 4.87209 19.2492 4.97978C18.9892 5.08747 18.7105 5.14289 18.4291 5.14289H15.8577C15.2894 5.14289 14.7443 4.91713 14.3425 4.51526C13.9406 4.1134 13.7148 3.56836 13.7148 3.00003C13.7148 2.43171 13.9406 1.88667 14.3425 1.48481C14.7443 1.08294 15.2894 0.857178 15.8577 0.857178H18.4291C18.7105 0.857178 18.9892 0.912604 19.2492 1.02029C19.5091 1.12798 19.7454 1.28582 19.9444 1.48481C20.1433 1.68379 20.3012 1.92002 20.4089 2.18C20.5166 2.43998 20.572 2.71863 20.572 3.00003V3.00003Z" stroke="white" stroke-width="1.5" stroke-linecap="round" stroke-linejoin="round"/>
<path d="M9.42899 8.57153V2.57153H4.28613V8.57153" stroke="white" stroke-width="1.5" stroke-linecap="round" stroke-linejoin="round"/>
<path d="M21.4289 14.5715H2.57171C1.62493 14.5715 0.857422 15.339 0.857422 16.2858V21.4287C0.857422 22.3754 1.62493 23.143 2.57171 23.143H21.4289C22.3756 23.143 23.1431 22.3754 23.1431 21.4287V16.2858C23.1431 15.339 22.3756 14.5715 21.4289 14.5715Z" stroke="white" stroke-width="1.5" stroke-linecap="round" stroke-linejoin="round"/>
<path d="M21.4284 14.5715V10.2858C21.4284 9.83116 21.2478 9.39513 20.9263 9.07364C20.6048 8.75215 20.1688 8.57153 19.7141 8.57153H4.28557C3.83092 8.57153 3.39488 8.75215 3.07339 9.07364C2.7519 9.39513 2.57129 9.83116 2.57129 10.2858V14.5715" stroke="white" stroke-width="1.5" stroke-linecap="round" stroke-linejoin="round"/>
</g>
<defs>
<clipPath id="clip0_363_1687">
<rect width="24" height="24" fill="white"/>
</clipPath>
</defs>
</svg>
