<svg width="25" height="25" viewBox="0 0 25 25" fill="none" xmlns="http://www.w3.org/2000/svg">
<path d="M15.7348 23.56C16.8693 24.2931 18.2213 24.6126 19.5633 24.4647C20.9054 24.3168 22.1557 23.7107 23.104 22.7482L23.933 21.9363C24.2965 21.564 24.5 21.064 24.5 20.5432C24.5 20.0225 24.2965 19.5225 23.933 19.1502L20.4142 15.6629C20.0456 15.3 19.5494 15.0967 19.0325 15.0967C18.5156 15.0967 18.0194 15.3 17.6508 15.6629V15.6629C17.279 16.0269 16.7798 16.2307 16.2598 16.2307C15.7399 16.2307 15.2407 16.0269 14.8689 15.6629L9.342 10.1275C9.15762 9.94548 9.01121 9.72861 8.91128 9.48945C8.81134 9.2503 8.75988 8.99363 8.75988 8.73437C8.75988 8.47512 8.81134 8.21845 8.91128 7.9793C9.01121 7.74014 9.15762 7.52327 9.342 7.3413V7.3413C9.7043 6.97208 9.90731 6.47512 9.90731 5.95744C9.90731 5.43977 9.7043 4.94281 9.342 4.57359L5.84162 1.06783C5.46986 0.703818 4.9706 0.5 4.45069 0.5C3.93077 0.5 3.43151 0.703818 3.05975 1.06783L2.24913 1.89815C1.28809 2.84791 0.682872 4.10013 0.535246 5.44425C0.38762 6.78837 0.706589 8.14241 1.43852 9.27869C5.25217 14.9077 10.1046 19.7551 15.7348 23.56V23.56Z" stroke="white" stroke-linecap="round" stroke-linejoin="round"/>
</svg>
