<svg width="24" height="24" viewBox="0 0 24 24" fill="none" xmlns="http://www.w3.org/2000/svg">
<path d="M19.7142 8.56975C19.7142 12.8383 11.9999 23.1412 11.9999 23.1412C11.9999 23.1412 4.28564 12.8383 4.28564 8.56975C4.28564 6.5238 5.0984 4.56164 6.54511 3.11493C7.99182 1.66822 9.95397 0.855469 11.9999 0.855469C14.0459 0.855469 16.008 1.66822 17.4548 3.11493C18.9015 4.56164 19.7142 6.5238 19.7142 8.56975V8.56975Z" stroke="white" stroke-width="1.5" stroke-linecap="round" stroke-linejoin="round"/>
<path d="M12.0001 11.1429C13.4203 11.1429 14.5716 9.99159 14.5716 8.57143C14.5716 7.15127 13.4203 6 12.0001 6C10.58 6 9.42871 7.15127 9.42871 8.57143C9.42871 9.99159 10.58 11.1429 12.0001 11.1429Z" stroke="white" stroke-width="1.5" stroke-linecap="round" stroke-linejoin="round"/>
</svg>
