<svg width="20" height="20" viewBox="0 0 20 20" fill="none" xmlns="http://www.w3.org/2000/svg">
<g clip-path="url(#clip0_310_450)">
<path d="M15.1998 2.19995H4.79982C4.56005 2.20653 4.3252 2.26945 4.11425 2.38361C3.9033 2.49777 3.72218 2.65997 3.58553 2.85709L0.985533 6.45709C0.79247 6.72991 0.696053 7.0594 0.711582 7.39326C0.72711 7.72712 0.853694 8.04623 1.07125 8.29995L8.87125 17.2857C9.00478 17.4577 9.17589 17.597 9.3715 17.6928C9.5671 17.7886 9.78202 17.8384 9.99982 17.8384C10.2176 17.8384 10.4325 17.7886 10.6281 17.6928C10.8237 17.597 10.9949 17.4577 11.1284 17.2857L18.9284 8.29995C19.1459 8.04623 19.2725 7.72712 19.2881 7.39326C19.3036 7.0594 19.2072 6.72991 19.0141 6.45709L16.4141 2.85709C16.2775 2.65997 16.0963 2.49777 15.8854 2.38361C15.6744 2.26945 15.4396 2.20653 15.1998 2.19995V2.19995Z" stroke="white" stroke-width="1.5" stroke-linecap="round" stroke-linejoin="round"/>
<path d="M9.2572 2.18567L5.77148 7.58567L10.0001 17.8" stroke="white" stroke-width="1.5" stroke-linecap="round" stroke-linejoin="round"/>
<path d="M10.7857 2.18567L14.2571 7.58567L10 17.8" stroke="white" stroke-width="1.5" stroke-linecap="round" stroke-linejoin="round"/>
<path d="M0.742676 7.58569H19.257" stroke="white" stroke-width="1.5" stroke-linecap="round" stroke-linejoin="round"/>
</g>
<defs>
<clipPath id="clip0_310_450">
<rect width="20" height="20" fill="white"/>
</clipPath>
</defs>
</svg>
