<svg width="24" height="24" viewBox="0 0 24 24" fill="none" xmlns="http://www.w3.org/2000/svg">
<g clip-path="url(#clip0_341_3146)">
<path d="M12.0003 9.42885C18.1543 9.42885 23.1431 7.51007 23.1431 5.14314C23.1431 2.7762 18.1543 0.857422 12.0003 0.857422C5.84625 0.857422 0.857422 2.7762 0.857422 5.14314C0.857422 7.51007 5.84625 9.42885 12.0003 9.42885Z" stroke="white" stroke-width="1.5" stroke-linecap="round" stroke-linejoin="round"/>
<path d="M0.857422 5.14355V18.8578C0.857422 21.2236 5.84599 23.1436 12.0003 23.1436C18.1546 23.1436 23.1431 21.2236 23.1431 18.8578V5.14355" stroke="white" stroke-width="1.5" stroke-linecap="round" stroke-linejoin="round"/>
<path d="M23.1431 12C23.1431 14.3657 18.1546 16.2857 12.0003 16.2857C5.84599 16.2857 0.857422 14.3657 0.857422 12" stroke="white" stroke-width="1.5" stroke-linecap="round" stroke-linejoin="round"/>
</g>
<defs>
<clipPath id="clip0_341_3146">
<rect width="24" height="24" fill="white"/>
</clipPath>
</defs>
</svg>
