<svg width="25" height="25" viewBox="0 0 25 25" fill="none" xmlns="http://www.w3.org/2000/svg">
<g clip-path="url(#clip0_363_1640)">
<path d="M22.3217 2.67859L16.2324 8.76787" stroke="white" stroke-width="1.5" stroke-linecap="round" stroke-linejoin="round"/>
<path d="M2.67773 2.67859L8.76702 8.76787" stroke="white" stroke-width="1.5" stroke-linecap="round" stroke-linejoin="round"/>
<path d="M2.67773 22.3213L8.76702 16.2321" stroke="white" stroke-width="1.5" stroke-linecap="round" stroke-linejoin="round"/>
<path d="M22.3217 22.3213L16.2324 16.2321" stroke="white" stroke-width="1.5" stroke-linecap="round" stroke-linejoin="round"/>
<path d="M12.4997 24.1071C18.9102 24.1071 24.1069 18.9104 24.1069 12.5C24.1069 6.08952 18.9102 0.892822 12.4997 0.892822C6.08927 0.892822 0.892578 6.08952 0.892578 12.5C0.892578 18.9104 6.08927 24.1071 12.4997 24.1071Z" stroke="white" stroke-width="1.5" stroke-linecap="round" stroke-linejoin="round"/>
<path d="M12.5003 17.7678C15.4096 17.7678 17.7681 15.4093 17.7681 12.4999C17.7681 9.59056 15.4096 7.23206 12.5003 7.23206C9.59092 7.23206 7.23242 9.59056 7.23242 12.4999C7.23242 15.4093 9.59092 17.7678 12.5003 17.7678Z" stroke="white" stroke-width="1.5" stroke-linecap="round" stroke-linejoin="round"/>
</g>
<defs>
<clipPath id="clip0_363_1640">
<rect width="25" height="25" fill="white"/>
</clipPath>
</defs>
</svg>
