<svg width="24" height="24" viewBox="0 0 24 24" fill="none" xmlns="http://www.w3.org/2000/svg">
<g clip-path="url(#clip0_97_19361)">
<path d="M21.4286 2.57227L15.5829 8.41798" stroke="white" stroke-width="1.5" stroke-linecap="round" stroke-linejoin="round"/>
<path d="M2.57141 2.57227L8.41713 8.41798" stroke="white" stroke-width="1.5" stroke-linecap="round" stroke-linejoin="round"/>
<path d="M2.57141 21.4297L8.41713 15.584" stroke="white" stroke-width="1.5" stroke-linecap="round" stroke-linejoin="round"/>
<path d="M21.4286 21.4297L15.5829 15.584" stroke="white" stroke-width="1.5" stroke-linecap="round" stroke-linejoin="round"/>
<path d="M12 23.1431C18.1541 23.1431 23.1429 18.1543 23.1429 12.0003C23.1429 5.84625 18.1541 0.857422 12 0.857422C5.846 0.857422 0.857178 5.84625 0.857178 12.0003C0.857178 18.1543 5.846 23.1431 12 23.1431Z" stroke="white" stroke-width="1.5" stroke-linecap="round" stroke-linejoin="round"/>
<path d="M12 17.0576C14.793 17.0576 17.0572 14.7935 17.0572 12.0005C17.0572 9.20752 14.793 6.94336 12 6.94336C9.20703 6.94336 6.94287 9.20752 6.94287 12.0005C6.94287 14.7935 9.20703 17.0576 12 17.0576Z" stroke="white" stroke-width="1.5" stroke-linecap="round" stroke-linejoin="round"/>
</g>
<defs>
<clipPath id="clip0_97_19361">
<rect width="24" height="24" fill="white"/>
</clipPath>
</defs>
</svg>
