<svg width="20" height="20" viewBox="0 0 20 20" fill="none" xmlns="http://www.w3.org/2000/svg">
<g clip-path="url(#clip0_249_44)">
<path d="M6.42852 18.5731C9.58443 18.5731 12.1428 16.0147 12.1428 12.8588C12.1428 9.7029 9.58443 7.14453 6.42852 7.14453C3.27261 7.14453 0.714233 9.7029 0.714233 12.8588C0.714233 16.0147 3.27261 18.5731 6.42852 18.5731Z" stroke="#FC5220" stroke-width="1.5" stroke-linecap="round" stroke-linejoin="round"/>
<path d="M13.5713 18.5731C16.7273 18.5731 19.2856 16.0147 19.2856 12.8588C19.2856 9.7029 16.7273 7.14453 13.5713 7.14453C10.4154 7.14453 7.85706 9.7029 7.85706 12.8588C7.85706 16.0147 10.4154 18.5731 13.5713 18.5731Z" stroke="#FC5220" stroke-width="1.5" stroke-linecap="round" stroke-linejoin="round"/>
<path d="M9.99993 12.8583C13.1558 12.8583 15.7142 10.2999 15.7142 7.14397C15.7142 3.98806 13.1558 1.42969 9.99993 1.42969C6.84402 1.42969 4.28564 3.98806 4.28564 7.14397C4.28564 10.2999 6.84402 12.8583 9.99993 12.8583Z" stroke="#FC5220" stroke-width="1.5" stroke-linecap="round" stroke-linejoin="round"/>
</g>
<defs>
<clipPath id="clip0_249_44">
<rect width="20" height="20" fill="white"/>
</clipPath>
</defs>
</svg>
