<svg width="24" height="24" viewBox="0 0 24 24" fill="none" xmlns="http://www.w3.org/2000/svg">
<g clip-path="url(#clip0_97_20872)">
<path d="M5.14289 23.1437C7.50983 23.1437 9.42861 21.2249 9.42861 18.858C9.42861 16.491 7.50983 14.5723 5.14289 14.5723C2.77596 14.5723 0.857178 16.491 0.857178 18.858C0.857178 21.2249 2.77596 23.1437 5.14289 23.1437Z" stroke="white" stroke-width="1.5" stroke-linecap="round" stroke-linejoin="round"/>
<path d="M9.42859 5.14342V2.57199C9.42859 2.11733 9.24797 1.6813 8.92648 1.35981C8.60499 1.03832 8.16896 0.857706 7.7143 0.857706H5.69144C5.28797 0.850368 4.89484 0.985601 4.58126 1.2396C4.26768 1.4936 4.05376 1.85007 3.97716 2.24628L0.942871 18.0006" stroke="white" stroke-width="1.5" stroke-linecap="round" stroke-linejoin="round"/>
<path d="M7.71436 9.42969H16.2858" stroke="white" stroke-width="1.5" stroke-linecap="round" stroke-linejoin="round"/>
<path d="M9.42859 13.7148V18.8577" stroke="white" stroke-width="1.5" stroke-linecap="round" stroke-linejoin="round"/>
<path d="M18.8571 23.1437C21.2241 23.1437 23.1428 21.2249 23.1428 18.858C23.1428 16.491 21.2241 14.5723 18.8571 14.5723C16.4902 14.5723 14.5714 16.491 14.5714 18.858C14.5714 21.2249 16.4902 23.1437 18.8571 23.1437Z" stroke="white" stroke-width="1.5" stroke-linecap="round" stroke-linejoin="round"/>
<path d="M14.5714 5.14342V2.57199C14.5714 2.11733 14.752 1.6813 15.0735 1.35981C15.395 1.03832 15.831 0.857706 16.2857 0.857706H18.3086C18.712 0.850368 19.1052 0.985601 19.4187 1.2396C19.7323 1.4936 19.9462 1.85007 20.0228 2.24628L23.0914 18.0006" stroke="white" stroke-width="1.5" stroke-linecap="round" stroke-linejoin="round"/>
<path d="M14.5714 13.7148V18.8577" stroke="white" stroke-width="1.5" stroke-linecap="round" stroke-linejoin="round"/>
</g>
<defs>
<clipPath id="clip0_97_20872">
<rect width="24" height="24" fill="white"/>
</clipPath>
</defs>
</svg>
