<svg width="30" height="30" viewBox="0 0 30 30" fill="none" xmlns="http://www.w3.org/2000/svg">
<path d="M21.4286 3.21484H8.57145C7.38798 3.21484 6.42859 4.17423 6.42859 5.3577V16.072C6.42859 17.2555 7.38798 18.2148 8.57145 18.2148H21.4286C22.6121 18.2148 23.5714 17.2555 23.5714 16.072V5.3577C23.5714 4.17423 22.6121 3.21484 21.4286 3.21484Z" stroke="white" stroke-width="1.5" stroke-linecap="round" stroke-linejoin="round"/>
<path d="M6.42855 9.64258H3.21427C2.64595 9.64258 2.1009 9.86834 1.69904 10.2702C1.29718 10.6721 1.07141 11.2171 1.07141 11.7854V21.4283C1.07141 21.9966 1.29718 22.5417 1.69904 22.9435C2.1009 23.3454 2.64595 23.5711 3.21427 23.5711H26.7857C27.354 23.5711 27.8991 23.3454 28.3009 22.9435C28.7028 22.5417 28.9286 21.9966 28.9286 21.4283V11.7854C28.9286 11.2171 28.7028 10.6721 28.3009 10.2702C27.8991 9.86834 27.354 9.64258 26.7857 9.64258H23.5714" stroke="white" stroke-width="1.5" stroke-linecap="round" stroke-linejoin="round"/>
<path d="M8.57143 23.5723L7.5 28.9294" stroke="white" stroke-width="1.5" stroke-linecap="round" stroke-linejoin="round"/>
<path d="M21.4286 23.5723L22.5 28.9294" stroke="white" stroke-width="1.5" stroke-linecap="round" stroke-linejoin="round"/>
</svg>
