<svg width="40" height="40" viewBox="0 0 40 40" fill="none" xmlns="http://www.w3.org/2000/svg">
<g clip-path="url(#clip0_310_1648)">
<path d="M19.9999 38.5716C30.2566 38.5716 38.5713 30.2569 38.5713 20.0001C38.5713 9.74342 30.2566 1.42871 19.9999 1.42871C9.74318 1.42871 1.42847 9.74342 1.42847 20.0001C1.42847 30.2569 9.74318 38.5716 19.9999 38.5716Z" stroke="#FC5220" stroke-width="1.5" stroke-linecap="round" stroke-linejoin="round"/>
<path d="M35.657 10H24.2284C22.7129 10 21.2595 10.602 20.1878 11.6737C19.1162 12.7453 18.5142 14.1988 18.5142 15.7143C18.5142 17.2298 19.1162 18.6833 20.1878 19.7549C21.2595 20.8265 22.7129 21.4286 24.2284 21.4286C24.9862 21.4286 25.7129 21.7296 26.2488 22.2654C26.7846 22.8012 27.0856 23.528 27.0856 24.2857V37.1429" stroke="#FC5220" stroke-width="1.5" stroke-linecap="round" stroke-linejoin="round"/>
<path d="M1.65698 22.8574H8.57127C10.0868 22.8574 11.5402 23.4595 12.6119 24.5311C13.6835 25.6027 14.2856 27.0562 14.2856 28.5717V37.686" stroke="#FC5220" stroke-width="1.5" stroke-linecap="round" stroke-linejoin="round"/>
</g>
<defs>
<clipPath id="clip0_310_1648">
<rect width="40" height="40" fill="white"/>
</clipPath>
</defs>
</svg>
