<svg width="100" height="100" viewBox="0 0 100 100" fill="none" xmlns="http://www.w3.org/2000/svg">
<path d="M71.4287 10.7148H28.5716C24.6267 10.7148 21.4287 13.9128 21.4287 17.8577V53.572C21.4287 57.5169 24.6267 60.7148 28.5716 60.7148H71.4287C75.3736 60.7148 78.5716 57.5169 78.5716 53.572V17.8577C78.5716 13.9128 75.3736 10.7148 71.4287 10.7148Z" stroke="black" stroke-opacity="0.1" stroke-width="1.5" stroke-linecap="round" stroke-linejoin="round"/>
<path d="M21.4284 32.1426H10.7141C8.81974 32.1426 7.00293 32.8951 5.66338 34.2347C4.32384 35.5742 3.57129 37.391 3.57129 39.2854V71.4283C3.57129 73.3227 4.32384 75.1395 5.66338 76.4791C7.00293 77.8186 8.81974 78.5712 10.7141 78.5712H89.2856C91.18 78.5712 92.9968 77.8186 94.3363 76.4791C95.6759 75.1395 96.4284 73.3227 96.4284 71.4283V39.2854C96.4284 37.391 95.6759 35.5742 94.3363 34.2347C92.9968 32.8951 91.18 32.1426 89.2856 32.1426H78.5713" stroke="black" stroke-opacity="0.1" stroke-width="1.5" stroke-linecap="round" stroke-linejoin="round"/>
<path d="M28.5714 78.5723L25 96.4294" stroke="black" stroke-opacity="0.1" stroke-width="1.5" stroke-linecap="round" stroke-linejoin="round"/>
<path d="M71.4287 78.5723L75.0001 96.4294" stroke="black" stroke-opacity="0.1" stroke-width="1.5" stroke-linecap="round" stroke-linejoin="round"/>
</svg>
