<svg width="24" height="24" viewBox="0 0 24 24" fill="none" xmlns="http://www.w3.org/2000/svg">
<g clip-path="url(#clip0_97_20522)">
<path d="M12 9.42885C18.1541 9.42885 23.1429 7.51007 23.1429 5.14314C23.1429 2.7762 18.1541 0.857422 12 0.857422C5.846 0.857422 0.857178 2.7762 0.857178 5.14314C0.857178 7.51007 5.846 9.42885 12 9.42885Z" stroke="white" stroke-width="1.5" stroke-linecap="round" stroke-linejoin="round"/>
<path d="M0.857178 5.14355V18.8578C0.857178 21.2236 5.84575 23.1436 12 23.1436C18.1543 23.1436 23.1429 21.2236 23.1429 18.8578V5.14355" stroke="white" stroke-width="1.5" stroke-linecap="round" stroke-linejoin="round"/>
<path d="M23.1429 12C23.1429 14.3657 18.1543 16.2857 12 16.2857C5.84575 16.2857 0.857178 14.3657 0.857178 12" stroke="white" stroke-width="1.5" stroke-linecap="round" stroke-linejoin="round"/>
</g>
<defs>
<clipPath id="clip0_97_20522">
<rect width="24" height="24" fill="white"/>
</clipPath>
</defs>
</svg>
