<svg width="100" height="100" viewBox="0 0 100 100" fill="none" xmlns="http://www.w3.org/2000/svg">
<path d="M89.2856 3.57227H10.7141C6.76926 3.57227 3.57129 6.77023 3.57129 10.7151V32.1437C3.57129 36.0886 6.76926 39.2866 10.7141 39.2866H89.2856C93.2305 39.2866 96.4284 36.0886 96.4284 32.1437V10.7151C96.4284 6.77023 93.2305 3.57227 89.2856 3.57227Z" stroke="black" stroke-opacity="0.1" stroke-width="1.5" stroke-linecap="round" stroke-linejoin="round"/>
<path d="M42.8574 21.4297H57.1431" stroke="black" stroke-opacity="0.1" stroke-width="1.5" stroke-linecap="round" stroke-linejoin="round"/>
<path d="M10.7141 39.2871C8.81974 39.2871 7.00293 40.0397 5.66338 41.3792C4.32384 42.7188 3.57129 44.5356 3.57129 46.43V67.8585C3.57129 69.7529 4.32384 71.5698 5.66338 72.9093C7.00293 74.2488 8.81974 75.0014 10.7141 75.0014H89.2856C91.18 75.0014 92.9968 74.2488 94.3363 72.9093C95.6759 71.5698 96.4284 69.7529 96.4284 67.8585V46.43C96.4284 44.5356 95.6759 42.7188 94.3363 41.3792C92.9968 40.0397 91.18 39.2871 89.2856 39.2871" stroke="black" stroke-opacity="0.1" stroke-width="1.5" stroke-linecap="round" stroke-linejoin="round"/>
<path d="M23.2144 23.216C22.2282 23.216 21.4287 22.4165 21.4287 21.4302C21.4287 20.444 22.2282 19.6445 23.2144 19.6445" stroke="black" stroke-opacity="0.1" stroke-width="1.5" stroke-linecap="round" stroke-linejoin="round"/>
<path d="M23.2139 23.216C24.2001 23.216 24.9996 22.4165 24.9996 21.4302C24.9996 20.444 24.2001 19.6445 23.2139 19.6445" stroke="black" stroke-opacity="0.1" stroke-width="1.5" stroke-linecap="round" stroke-linejoin="round"/>
<path d="M23.2144 58.9289C22.2282 58.9289 21.4287 58.1294 21.4287 57.1431C21.4287 56.1569 22.2282 55.3574 23.2144 55.3574" stroke="black" stroke-opacity="0.1" stroke-width="1.5" stroke-linecap="round" stroke-linejoin="round"/>
<path d="M23.2139 58.9289C24.2001 58.9289 24.9996 58.1294 24.9996 57.1431C24.9996 56.1569 24.2001 55.3574 23.2139 55.3574" stroke="black" stroke-opacity="0.1" stroke-width="1.5" stroke-linecap="round" stroke-linejoin="round"/>
<path d="M42.8574 57.1445H57.1431" stroke="black" stroke-opacity="0.1" stroke-width="1.5" stroke-linecap="round" stroke-linejoin="round"/>
<path d="M50 75V96.4286" stroke="black" stroke-opacity="0.1" stroke-width="1.5" stroke-linecap="round" stroke-linejoin="round"/>
<path d="M14.2852 96.4297H85.7137" stroke="black" stroke-opacity="0.1" stroke-width="1.5" stroke-linecap="round" stroke-linejoin="round"/>
</svg>
