<svg width="24" height="24" viewBox="0 0 24 24" fill="none" xmlns="http://www.w3.org/2000/svg">
<g clip-path="url(#clip0_460_674)">
<path d="M14.5714 16.2866C15.0261 16.2866 15.4621 16.1059 15.7836 15.7844C16.1051 15.463 16.2857 15.0269 16.2857 14.5723" stroke="white" stroke-width="1.5" stroke-linecap="round" stroke-linejoin="round"/>
<path d="M7.71436 16.2852H10.2858" stroke="white" stroke-width="1.5" stroke-linecap="round" stroke-linejoin="round"/>
<path d="M16.2858 7.71484V10.2863" stroke="white" stroke-width="1.5" stroke-linecap="round" stroke-linejoin="round"/>
<path d="M9.42864 7.71484C8.97398 7.71484 8.53795 7.89546 8.21646 8.21695C7.89497 8.53844 7.71436 8.97447 7.71436 9.42913" stroke="white" stroke-width="1.5" stroke-linecap="round" stroke-linejoin="round"/>
<path d="M0.857178 2.57171C0.857178 2.11705 1.03779 1.68102 1.35928 1.35952C1.68077 1.03803 2.11681 0.857422 2.57146 0.857422H14.5715C15.0261 0.857422 15.4622 1.03803 15.7836 1.35952C16.1051 1.68102 16.2857 2.11705 16.2857 2.57171V7.71456H21.4286C21.8833 7.71456 22.3193 7.89518 22.6408 8.21667C22.9623 8.53816 23.1429 8.97419 23.1429 9.42885V21.4289C23.1429 21.8835 22.9623 22.3195 22.6408 22.641C22.3193 22.9625 21.8833 23.1431 21.4286 23.1431H9.42861C8.97395 23.1431 8.53791 22.9625 8.21642 22.641C7.89493 22.3195 7.71432 21.8835 7.71432 21.4289V16.286H2.57146C2.11681 16.286 1.68077 16.1054 1.35928 15.7839C1.03779 15.4624 0.857178 15.0264 0.857178 14.5717V2.57171Z" stroke="white" stroke-width="1.5" stroke-linecap="round" stroke-linejoin="round"/>
<path d="M13.7144 7.71484H16.2858" stroke="white" stroke-width="1.5" stroke-linecap="round" stroke-linejoin="round"/>
<path d="M7.71436 13.7148V16.2863" stroke="white" stroke-width="1.5" stroke-linecap="round" stroke-linejoin="round"/>
</g>
<defs>
<clipPath id="clip0_460_674">
<rect width="24" height="24" fill="white"/>
</clipPath>
</defs>
</svg>
