<svg width="24" height="24" viewBox="0 0 24 24" fill="none" xmlns="http://www.w3.org/2000/svg">
<g clip-path="url(#clip0_366_2935)">
<path d="M12.8051 11.8286C12.5508 11.939 12.2766 11.996 11.9993 11.996C11.7221 11.996 11.4479 11.939 11.1936 11.8286L1.4222 7.30288C1.26353 7.22285 1.13019 7.10034 1.03702 6.94901C0.94386 6.79767 0.894531 6.62345 0.894531 6.44573C0.894531 6.26802 0.94386 6.0938 1.03702 5.94246C1.13019 5.79113 1.26353 5.66862 1.4222 5.58859L11.1936 1.02859C11.4479 0.91818 11.7221 0.861206 11.9993 0.861206C12.2766 0.861206 12.5508 0.91818 12.8051 1.02859L22.5765 5.55431C22.7352 5.63434 22.8685 5.75684 22.9617 5.90818C23.0548 6.05951 23.1042 6.23374 23.1042 6.41145C23.1042 6.58916 23.0548 6.76339 22.9617 6.91472C22.8685 7.06606 22.7352 7.18856 22.5765 7.26859L12.8051 11.8286Z" stroke="white" stroke-width="1.5" stroke-linecap="round" stroke-linejoin="round"/>
<path d="M23.1431 12.6L12.686 17.4171C12.4627 17.519 12.22 17.5717 11.9746 17.5717C11.7291 17.5717 11.4865 17.519 11.2631 17.4171L0.857422 12.6" stroke="white" stroke-width="1.5" stroke-linecap="round" stroke-linejoin="round"/>
<path d="M23.1431 18.1715L12.686 22.9887C12.4627 23.0905 12.22 23.1432 11.9746 23.1432C11.7291 23.1432 11.4865 23.0905 11.2631 22.9887L0.857422 18.1715" stroke="white" stroke-width="1.5" stroke-linecap="round" stroke-linejoin="round"/>
</g>
<defs>
<clipPath id="clip0_366_2935">
<rect width="24" height="24" fill="white"/>
</clipPath>
</defs>
</svg>
