<svg width="20" height="20" viewBox="0 0 20 20" fill="none" xmlns="http://www.w3.org/2000/svg">
<g clip-path="url(#clip0_310_420)">
<path d="M18.9 9.04291C19.1369 9.30541 19.268 9.64645 19.268 10.0001C19.268 10.3537 19.1369 10.6947 18.9 10.9572C17.4 12.5715 13.9857 15.7143 9.99999 15.7143C6.01428 15.7143 2.59999 12.5715 1.09999 10.9572C0.863075 10.6947 0.731934 10.3537 0.731934 10.0001C0.731934 9.64645 0.863075 9.30541 1.09999 9.04291C2.59999 7.42862 6.01428 4.28577 9.99999 4.28577C13.9857 4.28577 17.4 7.42862 18.9 9.04291Z" stroke="white" stroke-width="1.5" stroke-linecap="round" stroke-linejoin="round"/>
<path d="M9.99997 12.8572C11.5779 12.8572 12.8571 11.578 12.8571 10.0001C12.8571 8.42213 11.5779 7.14294 9.99997 7.14294C8.42201 7.14294 7.14282 8.42213 7.14282 10.0001C7.14282 11.578 8.42201 12.8572 9.99997 12.8572Z" stroke="white" stroke-width="1.5" stroke-linecap="round" stroke-linejoin="round"/>
</g>
<defs>
<clipPath id="clip0_310_420">
<rect width="20" height="20" fill="white"/>
</clipPath>
</defs>
</svg>
