<svg width="50" height="50" viewBox="0 0 50 50" fill="none" xmlns="http://www.w3.org/2000/svg">
<circle cx="25" cy="25" r="25" fill="#FC5220"/>
<path d="M13.3908 28.4794C13.6274 29.27 13.9425 30.0266 14.3271 30.7404C14.8187 31.6527 14.6691 32.7766 13.9362 33.5095L13.1157 34.3299L14.1555 35.3697L18.5992 30.9259C17.1236 29.3324 16.2342 27.1882 16.2778 24.8352C16.3643 20.1706 20.1706 16.3644 24.8351 16.278C27.1881 16.2343 29.3323 17.1238 30.9258 18.5994L35.3696 14.1556L34.3299 13.1159L33.5094 13.9363C32.7766 14.6691 31.6526 14.8188 30.7403 14.3272C30.0267 13.9426 29.27 13.6275 28.4794 13.3909C27.4905 13.095 26.808 12.1923 26.808 11.16V10H23.1934V11.1598C23.1934 12.1921 22.511 13.0948 21.522 13.3907C20.7314 13.6273 19.9748 13.9424 19.2611 14.327C18.3488 14.8186 17.2249 14.669 16.492 13.9361L15.6715 13.1156L13.1156 15.6715L13.9361 16.492C14.6688 17.2248 14.8186 18.3488 14.327 19.2611C13.9424 19.9747 13.6272 20.7315 13.3907 21.5221C13.0947 22.5111 12.1921 23.1935 11.1598 23.1935H10V26.808H11.1598C12.1922 26.808 13.0949 27.4904 13.3908 28.4794Z" fill="white"/>
<path d="M36.6106 21.5207C36.374 20.7301 36.0589 19.9735 35.6743 19.2597C35.1827 18.3474 35.3323 17.2235 36.0652 16.4906L36.8856 15.6702L35.7827 14.5672L31.3405 19.0095C32.8526 20.6094 33.7677 22.7796 33.7234 25.1649C33.637 29.8295 29.8307 33.6357 25.1661 33.7222C22.7808 33.7664 20.6106 32.8513 19.0107 31.3392L14.5685 35.7814L15.6714 36.8844L16.4919 36.0639C17.2246 35.3311 18.3487 35.1814 19.2609 35.673C19.9746 36.0576 20.7313 36.3727 21.5219 36.6093C22.5109 36.9052 23.1933 37.8079 23.1933 38.8402V40H26.8079V38.8402C26.8079 37.8079 27.4902 36.9052 28.4792 36.6093C29.2699 36.3727 30.0265 36.0576 30.7402 35.673C31.6525 35.1814 32.7764 35.331 33.5093 36.0639L34.3297 36.8844L36.8856 34.3285L36.0652 33.508C35.3324 32.7752 35.1827 31.6513 35.6743 30.7389C36.0589 30.0253 36.374 29.2686 36.6106 28.4779C36.9065 27.489 37.8092 26.8065 38.8415 26.8065H40.0013V23.192H38.8415C37.8092 23.1921 36.9065 22.5096 36.6106 21.5207Z" fill="white"/>
<path d="M25.0007 18.2754C21.2864 18.2754 18.2754 21.2864 18.2754 25.0007C18.2754 28.715 21.2864 31.726 25.0007 31.726C28.7149 31.726 31.7259 28.715 31.7259 25.0007C31.7259 21.2864 28.7149 18.2754 25.0007 18.2754ZM25.0007 19.2337C25.3163 19.2337 25.5722 19.4897 25.5722 19.8053C25.5722 20.1209 25.3163 20.3768 25.0007 20.3768C24.685 20.3768 24.4291 20.121 24.4291 19.8053C24.4292 19.4897 24.685 19.2337 25.0007 19.2337ZM20.9229 20.9228C21.1461 20.6996 21.508 20.6996 21.7311 20.9228C21.9543 21.1461 21.9543 21.5079 21.7311 21.7311C21.5079 21.9543 21.146 21.9543 20.9229 21.7311C20.6997 21.5079 20.6997 21.1461 20.9229 20.9228ZM19.8053 25.5722C19.4897 25.5722 19.2338 25.3163 19.2338 25.0007C19.2338 24.6851 19.4897 24.4292 19.8053 24.4292C20.1209 24.4292 20.3769 24.685 20.3769 25.0007C20.3769 25.3163 20.1209 25.5722 19.8053 25.5722ZM21.7311 29.0786C21.5079 29.3017 21.146 29.3017 20.9229 29.0786C20.6997 28.8554 20.6997 28.4935 20.9229 28.2704C21.1461 28.0472 21.508 28.0472 21.7311 28.2704C21.9543 28.4935 21.9543 28.8554 21.7311 29.0786ZM25.0007 30.7676C24.685 30.7676 24.4291 30.5117 24.4291 30.1961C24.4291 29.8805 24.685 29.6245 25.0007 29.6245C25.3163 29.6245 25.5722 29.8805 25.5722 30.1961C25.5722 30.5118 25.3164 30.7676 25.0007 30.7676ZM25.0007 28.6366C22.9926 28.6366 21.3648 27.0087 21.3648 25.0007C21.3648 22.9926 22.9927 21.3648 25.0007 21.3648C27.0088 21.3648 28.6365 22.9927 28.6365 25.0007C28.6366 27.0088 27.0088 28.6366 25.0007 28.6366ZM29.0785 29.0786C28.8553 29.3017 28.4934 29.3017 28.2703 29.0786C28.0471 28.8554 28.0471 28.4935 28.2703 28.2704C28.4935 28.0472 28.8554 28.0472 29.0785 28.2704C29.3017 28.4935 29.3017 28.8554 29.0785 29.0786ZM29.0785 21.7311C28.8553 21.9543 28.4934 21.9543 28.2703 21.7311C28.0471 21.5078 28.0471 21.146 28.2703 20.9228C28.4935 20.6996 28.8554 20.6996 29.0785 20.9228C29.3017 21.1461 29.3017 21.5079 29.0785 21.7311ZM30.1961 25.5722C29.8805 25.5722 29.6246 25.3163 29.6246 25.0007C29.6246 24.6851 29.8805 24.4292 30.1961 24.4292C30.5117 24.4292 30.7676 24.685 30.7676 25.0007C30.7676 25.3163 30.5117 25.5722 30.1961 25.5722Z" fill="white"/>
</svg>
