<svg width="153" height="50" viewBox="0 0 153 50" fill="none" xmlns="http://www.w3.org/2000/svg">
<path d="M68.108 34H64.052L70.474 16.58H76.142L82.564 34H78.326L76.922 30.126H69.538L68.108 34ZM71.8 23.938L70.812 26.642H75.648L74.66 23.938L73.386 20.012H73.126L71.8 23.938ZM87.0555 34H82.6875L87.0295 27.5V27.266L82.6875 20.922H87.1855L89.9935 25.29H90.2275L92.9575 20.922H97.3255L92.9835 27.422V27.682L97.3255 34H92.8015L90.0195 29.658H89.7595L87.0555 34ZM101.946 19.44H98.124L98.072 16.58H101.946V19.44ZM102.024 34H98.124V20.922H102.024V34ZM108.07 34H104.196V20.922H107.81V23.028H107.966C108.616 21.702 109.786 20.662 111.632 20.662C114.362 20.662 115.376 22.69 115.376 25.316V26.512H111.502V25.81C111.502 24.406 111.06 23.964 109.838 23.964C108.642 23.964 108.07 24.38 108.07 25.81V34ZM123.157 34.26C118.945 34.26 116.449 31.608 116.449 27.474C116.449 23.314 118.945 20.662 123.157 20.662C127.343 20.662 129.787 23.314 129.787 27.474C129.787 31.608 127.343 34.26 123.157 34.26ZM123.157 30.828C125.263 30.828 125.991 29.996 125.991 27.474C125.991 24.926 125.263 24.094 123.157 24.094C121.025 24.094 120.297 24.926 120.297 27.474C120.297 29.996 121.025 30.828 123.157 30.828ZM135.441 34H131.567V20.922H135.181V23.21H135.337C136.039 21.728 137.443 20.662 139.731 20.662C143.137 20.662 144.593 22.924 144.593 25.706V34H140.693V26.486C140.693 24.666 140.095 24.016 138.119 24.016C136.247 24.016 135.441 24.614 135.441 26.59V34Z" fill="white"/>
<path d="M151.402 34H146.514V29.398H151.402V34Z" fill="#FC5220"/>
<circle cx="25" cy="25" r="25" fill="#FC5220"/>
<path d="M13.3908 28.4794C13.6274 29.27 13.9425 30.0266 14.3271 30.7404C14.8187 31.6527 14.6691 32.7766 13.9362 33.5095L13.1157 34.3299L14.1555 35.3697L18.5992 30.9259C17.1236 29.3324 16.2342 27.1882 16.2778 24.8352C16.3643 20.1706 20.1706 16.3644 24.8351 16.278C27.1881 16.2343 29.3323 17.1238 30.9258 18.5994L35.3696 14.1556L34.3299 13.1159L33.5094 13.9363C32.7766 14.6691 31.6526 14.8188 30.7403 14.3272C30.0267 13.9426 29.27 13.6275 28.4794 13.3909C27.4905 13.095 26.808 12.1923 26.808 11.16V10H23.1934V11.1598C23.1934 12.1921 22.511 13.0948 21.522 13.3907C20.7314 13.6273 19.9748 13.9424 19.2611 14.327C18.3488 14.8186 17.2249 14.669 16.492 13.9361L15.6715 13.1156L13.1156 15.6715L13.9361 16.492C14.6688 17.2248 14.8186 18.3488 14.327 19.2611C13.9424 19.9747 13.6272 20.7315 13.3907 21.5221C13.0947 22.5111 12.1921 23.1935 11.1598 23.1935H10V26.808H11.1598C12.1922 26.808 13.0949 27.4904 13.3908 28.4794Z" fill="white"/>
<path d="M36.6106 21.5198C36.374 20.7292 36.0589 19.9726 35.6743 19.2589C35.1827 18.3466 35.3323 17.2227 36.0652 16.4898L36.8856 15.6693L35.7827 14.5664L31.3405 19.0086C32.8526 20.6086 33.7677 22.7788 33.7234 25.164C33.637 29.8286 29.8307 33.6349 25.1661 33.7213C22.7808 33.7656 20.6106 32.8505 19.0107 31.3384L14.5685 35.7806L15.6714 36.8835L16.4919 36.0631C17.2246 35.3303 18.3487 35.1805 19.2609 35.6722C19.9746 36.0567 20.7313 36.3719 21.5219 36.6085C22.5109 36.9044 23.1933 37.8071 23.1933 38.8394V39.9992H26.8079V38.8394C26.8079 37.8071 27.4902 36.9044 28.4792 36.6085C29.2699 36.3719 30.0265 36.0567 30.7402 35.6722C31.6525 35.1805 32.7764 35.3302 33.5093 36.0631L34.3297 36.8835L36.8856 34.3276L36.0652 33.5072C35.3324 32.7744 35.1827 31.6505 35.6743 30.7381C36.0589 30.0244 36.374 29.2677 36.6106 28.4771C36.9065 27.4882 37.8092 26.8057 38.8415 26.8057H40.0013V23.1911H38.8415C37.8092 23.1912 36.9065 22.5088 36.6106 21.5198Z" fill="white"/>
<path d="M25.0007 18.2773C21.2864 18.2773 18.2754 21.2884 18.2754 25.0026C18.2754 28.7169 21.2864 31.7279 25.0007 31.7279C28.7149 31.7279 31.7259 28.7169 31.7259 25.0026C31.7259 21.2884 28.7149 18.2773 25.0007 18.2773ZM25.0007 19.2356C25.3163 19.2356 25.5722 19.4916 25.5722 19.8072C25.5722 20.1228 25.3163 20.3787 25.0007 20.3787C24.685 20.3787 24.4291 20.1229 24.4291 19.8072C24.4292 19.4916 24.685 19.2356 25.0007 19.2356ZM20.9229 20.9248C21.1461 20.7015 21.508 20.7015 21.7311 20.9248C21.9543 21.148 21.9543 21.5098 21.7311 21.733C21.5079 21.9562 21.146 21.9562 20.9229 21.733C20.6997 21.5098 20.6997 21.148 20.9229 20.9248ZM19.8053 25.5742C19.4897 25.5742 19.2338 25.3182 19.2338 25.0026C19.2338 24.687 19.4897 24.4311 19.8053 24.4311C20.1209 24.4311 20.3769 24.6869 20.3769 25.0026C20.3769 25.3182 20.1209 25.5742 19.8053 25.5742ZM21.7311 29.0805C21.5079 29.3036 21.146 29.3036 20.9229 29.0805C20.6997 28.8573 20.6997 28.4954 20.9229 28.2723C21.1461 28.0491 21.508 28.0491 21.7311 28.2723C21.9543 28.4954 21.9543 28.8573 21.7311 29.0805ZM25.0007 30.7695C24.685 30.7695 24.4291 30.5136 24.4291 30.198C24.4291 29.8824 24.685 29.6265 25.0007 29.6265C25.3163 29.6265 25.5722 29.8824 25.5722 30.198C25.5722 30.5137 25.3164 30.7695 25.0007 30.7695ZM25.0007 28.6385C22.9926 28.6385 21.3648 27.0106 21.3648 25.0026C21.3648 22.9945 22.9927 21.3667 25.0007 21.3667C27.0088 21.3667 28.6365 22.9946 28.6365 25.0026C28.6366 27.0107 27.0088 28.6385 25.0007 28.6385ZM29.0785 29.0805C28.8553 29.3036 28.4934 29.3036 28.2703 29.0805C28.0471 28.8573 28.0471 28.4954 28.2703 28.2723C28.4935 28.0491 28.8554 28.0491 29.0785 28.2723C29.3017 28.4954 29.3017 28.8573 29.0785 29.0805ZM29.0785 21.733C28.8553 21.9562 28.4934 21.9562 28.2703 21.733C28.0471 21.5097 28.0471 21.1479 28.2703 20.9248C28.4935 20.7015 28.8554 20.7015 29.0785 20.9248C29.3017 21.148 29.3017 21.5098 29.0785 21.733ZM30.1961 25.5742C29.8805 25.5742 29.6246 25.3182 29.6246 25.0026C29.6246 24.687 29.8805 24.4311 30.1961 24.4311C30.5117 24.4311 30.7676 24.6869 30.7676 25.0026C30.7676 25.3182 30.5117 25.5742 30.1961 25.5742Z" fill="white"/>
</svg>
