<svg width="140" height="140" viewBox="0 0 140 140" fill="none" xmlns="http://www.w3.org/2000/svg">
<circle cx="70" cy="70" r="35" fill="white" fill-opacity="0.1"/>
<path d="M62.6665 77.1316C62.6713 77.4094 62.7521 77.6806 62.9002 77.9157C63.0483 78.1507 63.258 78.3407 63.5065 78.465C63.7546 78.6052 64.0348 78.6789 64.3198 78.6789C64.6049 78.6789 64.885 78.6052 65.1332 78.465L76.6665 71.3316C76.9174 71.2108 77.1292 71.0215 77.2774 70.7856C77.4255 70.5498 77.5041 70.2769 77.5041 69.9983C77.5041 69.7198 77.4255 69.4469 77.2774 69.211C77.1292 68.9751 76.9174 68.7859 76.6665 68.665L65.1332 61.585C64.885 61.4448 64.6049 61.3711 64.3198 61.3711C64.0348 61.3711 63.7546 61.4448 63.5065 61.585C63.258 61.7092 63.0483 61.8992 62.9002 62.1343C62.7521 62.3694 62.6713 62.6405 62.6665 62.9183V77.1316Z" fill="white"/>
<path d="M75.9764 19.9352L72.6707 19.4218L72.2534 9.33594L74.8679 9.74204L74.908 14.2652L74.7372 17.5441L74.9024 17.5698L76.05 14.4426L77.9632 10.2228L81.1638 10.72L81.6294 15.2793L81.7242 18.6294L81.8895 18.6551L82.7864 15.459L84.2741 11.2031L86.8285 11.5999L83.1888 21.0555L79.8982 20.5444L79.3953 16.0241L79.2289 12.8275L79.0787 12.8041L77.8927 15.7907L75.9764 19.9352Z" fill="white"/>
<path d="M89.093 23.3004C87.8547 22.7682 87.1843 21.7208 87.745 20.492C88.2256 19.4387 89.3005 19.1254 90.8461 19.5312L93.3995 20.2087L93.4981 19.9927C93.8616 19.1959 93.4842 18.856 92.6632 18.5032C91.8145 18.1384 91.3758 18.2244 91.0616 18.9131L90.9938 19.0617L89.0041 18.2065L89.0719 18.058C89.8113 16.4375 91.5921 15.9269 93.5678 16.776C95.6271 17.6611 96.2132 19.2214 95.3876 21.0309L93.5514 25.0551L91.6174 24.2238L92.0364 23.3056L91.9529 23.2697C91.3493 23.6079 90.387 23.8565 89.093 23.3004ZM89.8086 21.1851C89.6422 21.5497 89.879 21.7968 90.4912 22.0599C91.3399 22.4247 92.3151 22.5854 92.7957 21.5321L90.6565 20.9681C90.1944 20.8502 89.938 20.9015 89.8086 21.1851Z" fill="white"/>
<path d="M99.2403 28.4583C97.5842 27.3813 97.1944 26.2745 98.2023 24.8145L100.015 22.1888L99.0036 21.5311L100.054 20.0097L101.116 20.7003L102.461 19.4949L103.953 20.465L102.962 21.9005L104.757 23.0678L103.706 24.5892L101.911 23.4219L100.243 25.839C99.8699 26.3788 100.017 26.5635 100.839 27.0978L101.623 27.6075L100.564 29.1412C100.218 29.0052 99.6828 28.746 99.2403 28.4583Z" fill="white"/>
<path d="M105.36 33.3774C103.537 31.6809 103.623 29.6945 105.297 27.9993C106.992 26.2828 109.11 26.1662 110.955 27.8832C112.427 29.2527 112.641 31.1285 111.335 32.4505L111.208 32.5785L109.561 31.0455L109.645 30.9602C110.245 30.3525 110.094 29.8228 109.413 29.1892C108.622 28.4534 107.923 28.499 106.933 29.5012C105.954 30.4927 105.936 31.172 106.727 31.9079C107.408 32.5415 107.96 32.666 108.56 32.0583L108.645 31.973L110.292 33.506L110.166 33.634C108.86 34.956 106.887 34.798 105.36 33.3774Z" fill="white"/>
<path d="M111.484 39.7107L110.198 37.8985L118.594 32.2852L119.88 34.0974L116.81 36.15L116.862 36.223C117.684 36.1576 118.672 36.483 119.363 37.456C120.485 39.0371 119.861 40.4228 118.52 41.3193L114.522 43.9919L113.228 42.1675L116.849 39.7462C117.726 39.1598 117.841 38.6706 117.185 37.7462C116.564 36.8705 115.995 36.6946 115.043 37.3313L111.484 39.7107Z" fill="white"/>
<path d="M119.193 54.5075C118.294 51.6857 119.722 49.3708 122.76 48.4587C125.799 47.5466 128.324 48.6745 129.224 51.4963C130.123 54.3182 128.69 56.6189 125.652 57.531C122.613 58.4431 120.092 57.3294 119.193 54.5075ZM121.301 53.8747C121.818 55.4973 122.65 55.9587 124.932 55.2735C127.215 54.5884 127.633 53.7517 127.116 52.1291C126.599 50.5065 125.762 50.0311 123.48 50.7162C121.197 51.4014 120.784 52.2522 121.301 53.8747Z" fill="white"/>
<path d="M121.454 64.8113C121.312 62.8667 122.574 61.966 124.198 61.8549L129.041 61.5234L129.2 63.7185L124.813 64.0188C123.751 64.0915 123.397 64.4711 123.477 65.576C123.554 66.6367 123.937 67.0695 125.09 66.9905L129.416 66.6944L129.576 68.8896L121.941 69.4121L121.792 67.3644L123.128 67.2729L123.122 67.1993C122.212 66.847 121.548 66.1078 121.454 64.8113Z" fill="white"/>
<path d="M121.63 74.9098L121.913 72.7264L129.507 73.6534L129.243 75.6903L128.02 75.541L128.009 75.6289C128.731 76.0892 129.25 76.8224 129.115 77.8627C128.916 79.4013 127.664 79.8291 126.139 79.6429L125.445 79.5582L125.728 77.3748L126.135 77.4246C126.95 77.5241 127.239 77.3063 127.329 76.6176C127.416 75.9435 127.216 75.5917 126.386 75.4903L121.63 74.9098Z" fill="white"/>
<path d="M117.75 89.2672C118.913 86.5855 120.572 85.8049 122.648 86.6526L122.83 86.727L121.963 88.7281L121.822 88.6709C120.784 88.247 120.33 88.4943 119.616 90.1415C119.115 91.2986 119.229 91.6818 119.86 91.9396C120.492 92.1973 120.775 92.1528 121.554 90.9648L122.545 89.4788C123.609 87.8623 124.839 87.4995 126.298 88.0951C127.729 88.6793 128.703 90.2788 127.57 92.8925C126.443 95.4926 124.582 96.0146 122.717 95.2528L122.604 95.207L123.478 93.1923L123.632 93.2553C124.614 93.6562 125.108 93.3932 125.692 92.0455C126.199 90.8748 126.092 90.3984 125.503 90.1578C124.9 89.9116 124.653 90.0993 123.983 91.0752L122.958 92.5634C121.747 94.3282 120.426 94.5578 119.051 93.9965C117.551 93.3837 116.629 91.8537 117.75 89.2672Z" fill="white"/>
<path d="M113.015 98.0736C114.111 96.4577 115.248 96.0705 116.761 97.0371L119.48 98.7753L120.15 97.7886L121.726 98.7958L121.023 99.8319L122.276 101.128L121.288 102.583L119.801 101.633L118.613 103.384L117.037 102.377L118.225 100.626L115.721 99.0254C115.162 98.668 114.973 98.8124 114.429 99.6142L113.91 100.379L112.322 99.3636C112.459 99.027 112.722 98.5053 113.015 98.0736Z" fill="white"/>
<path d="M107.956 104.073C109.652 102.337 111.783 102.344 113.539 103.959C115.307 105.585 115.428 107.65 113.732 109.387C112.047 111.112 109.937 111.084 108.169 109.458C106.413 107.843 106.271 105.799 107.956 104.073ZM109.414 105.414C108.566 106.283 108.626 106.908 109.698 107.893C110.78 108.889 111.427 108.914 112.275 108.046C113.133 107.167 113.073 106.541 111.99 105.546C110.919 104.56 110.272 104.535 109.414 105.414Z" fill="white"/>
<path d="M101.336 110.131L103.177 108.847L107.643 114.88L105.925 116.078L105.206 115.106L105.132 115.158C105.276 115.985 105.075 116.853 104.198 117.465C102.9 118.369 101.725 117.77 100.829 116.559L100.42 116.007L102.262 114.723L102.501 115.047C102.981 115.694 103.342 115.752 103.923 115.347C104.491 114.95 104.621 114.569 104.133 113.909L101.336 110.131Z" fill="white"/>
<path d="M93.0578 112.365C93.5277 112.155 94.0772 112.007 94.3993 111.944L95.1892 113.607L94.0284 114.127C93.5032 114.362 93.3416 114.515 93.3382 115.037L93.3349 115.348L99.3213 120.508L97.0134 121.54L94.5425 119.231L93.427 118.152L93.275 118.22L93.4645 119.713L93.8211 122.969L91.5133 124.001L91.1816 115.4C91.1197 113.753 91.6897 112.978 93.0578 112.365Z" fill="white"/>
<path d="M80.791 125.622L81.3859 124.238L82.8496 124.944L82.0695 126.239L82.1371 126.363L83.6706 126.488L83.431 128.055L81.8898 127.705L81.8023 127.824L82.1605 129.279L80.5545 129.539L80.4064 128.051L80.2838 127.966L78.9557 128.765L78.2198 127.357L79.6305 126.769L79.653 126.63L78.4819 125.652L79.6273 124.508L80.6409 125.647L80.791 125.622Z" fill="white"/>
<path d="M64.1438 120.077L67.4512 120.58L67.9028 130.664L65.287 130.266L65.2315 125.743L65.3911 122.464L65.2258 122.439L64.0889 125.57L62.19 129.795L58.9878 129.309L58.5067 124.751L58.4005 121.401L58.2351 121.376L57.3491 124.575L55.8758 128.835L53.3201 128.447L56.9276 118.98L60.22 119.48L60.7382 123.999L60.9155 127.195L61.0658 127.218L62.2416 124.227L64.1438 120.077Z" fill="white"/>
<path d="M51.0183 116.755C52.2585 117.283 52.9326 118.328 52.3761 119.559C51.8992 120.614 50.8254 120.931 49.2783 120.53L46.7226 119.861L46.6248 120.077C46.264 120.875 46.6427 121.214 47.4648 121.564C48.3148 121.926 48.7532 121.838 49.065 121.149L49.1323 121L51.1249 121.848L51.0577 121.997C50.3239 123.62 48.5449 124.137 46.5662 123.294C44.5039 122.416 43.9123 120.857 44.7317 119.045L46.5539 115.015L48.4908 115.84L48.075 116.759L48.1586 116.795C48.7611 116.455 49.7224 116.203 51.0183 116.755ZM50.3101 118.873C50.4752 118.507 50.2376 118.261 49.6245 118C48.7745 117.638 47.7988 117.48 47.3219 118.535L49.463 119.092C49.9255 119.209 50.1817 119.157 50.3101 118.873Z" fill="white"/>
<path d="M40.8529 111.634C42.5127 112.705 42.9063 113.811 41.9033 115.274L40.0997 117.906L41.1133 118.56L40.0681 120.085L39.0039 119.398L37.663 120.607L36.168 119.642L37.1541 118.203L35.355 117.042L36.4001 115.517L38.1992 116.679L39.8596 114.256C40.2304 113.715 40.0825 113.531 39.259 112.999L38.4735 112.492L39.527 110.955C39.8732 111.09 40.4095 111.347 40.8529 111.634Z" fill="white"/>
<path d="M34.7168 106.731C36.5461 108.422 36.467 110.408 34.7985 112.109C33.109 113.831 30.9917 113.954 29.1404 112.243C27.6637 110.879 27.4442 109.003 28.7455 107.677L28.8714 107.549L30.5244 109.077L30.4404 109.162C29.8423 109.772 29.9955 110.301 30.6788 110.932C31.4722 111.666 32.1706 111.618 33.157 110.612C34.133 109.618 34.1482 108.938 33.3547 108.205C32.6715 107.574 32.1195 107.451 31.5213 108.061L31.4374 108.146L29.7844 106.618L29.9103 106.49C31.2116 105.164 33.1851 105.315 34.7168 106.731Z" fill="white"/>
<path d="M28.5713 100.403L29.8637 102.211L21.4868 107.852L20.1944 106.044L23.2576 103.981L23.2055 103.908C22.3837 103.976 21.394 103.654 20.7001 102.683C19.5725 101.106 20.1918 99.7181 21.5296 98.8173L25.518 96.1318L26.8191 97.9519L23.2058 100.385C22.3306 100.974 22.2175 101.464 22.8768 102.386C23.5013 103.26 24.0703 103.434 25.0205 102.794L28.5713 100.403Z" fill="white"/>
<path d="M20.8127 85.6598C21.7218 88.4788 20.3013 90.7982 17.2661 91.7202C14.2309 92.6422 11.7013 91.5226 10.7923 88.7037C9.88319 85.8848 11.3082 83.5794 14.3434 82.6574C17.3786 81.7354 19.9036 82.8409 20.8127 85.6598ZM18.707 86.2995C18.1842 84.6786 17.3507 84.22 15.0707 84.9126C12.7907 85.6052 12.3753 86.4432 12.898 88.0641C13.4207 89.685 14.2588 90.1577 16.5388 89.4651C18.8188 88.7725 19.2297 87.9204 18.707 86.2995Z" fill="white"/>
<path d="M18.5155 75.34C18.6634 77.2842 17.4048 78.1889 15.781 78.3053L10.9399 78.6523L10.7729 76.4578L15.1587 76.1434C16.221 76.0672 16.5735 75.6865 16.4894 74.5819C16.4087 73.5214 16.025 73.0899 14.8716 73.1725L10.5465 73.4826L10.3795 71.288L18.0129 70.7408L18.1687 72.7881L16.8332 72.8838L16.8388 72.9575C17.7504 73.3068 18.4169 74.0439 18.5155 75.34Z" fill="white"/>
<path d="M18.3048 65.2597L18.0293 67.444L10.4318 66.5414L10.6888 64.5037L11.9122 64.6491L11.9233 64.5611C11.1992 64.1031 10.6783 63.3717 10.8095 62.3308C11.0037 60.7916 12.2539 60.3599 13.7794 60.5411L14.4742 60.6236L14.1988 62.8079L13.791 62.7594C12.9753 62.6625 12.6871 62.8812 12.6002 63.5702C12.5152 64.2446 12.7162 64.5958 13.5469 64.6945L18.3048 65.2597Z" fill="white"/>
<path d="M22.135 50.8718C20.9816 53.5573 19.3252 54.3432 17.2464 53.5023L17.0638 53.4284L17.9245 51.4245L18.0649 51.4813C19.1043 51.9018 19.5574 51.6531 20.2658 50.0036C20.7634 48.8449 20.6476 48.462 20.0155 48.2063C19.3835 47.9506 19.1002 47.996 18.3251 49.1865L17.3393 50.6757C16.2809 52.2956 15.0518 52.6624 13.591 52.0715C12.1584 51.4919 11.1788 49.8956 12.3029 47.2782C13.4212 44.6745 15.2801 44.1465 17.1482 44.9022L17.2605 44.9477L16.394 46.9652L16.2395 46.9027C15.2563 46.505 14.7635 46.7696 14.1839 48.1192C13.6804 49.2915 13.7892 49.7675 14.3791 50.0062C14.9831 50.2505 15.2289 50.062 15.8963 49.0839L16.916 47.5924C18.1208 45.8237 19.4412 45.5899 20.8176 46.1467C22.3205 46.7547 23.2474 48.2817 22.135 50.8718Z" fill="white"/>
<path d="M26.842 42.0694C25.7511 43.6888 24.6152 44.0796 23.0995 43.1179L20.3739 41.3884L19.7077 42.3774L18.1284 41.3752L18.8278 40.3369L17.5708 39.0452L18.5534 37.5866L20.0436 38.5321L21.226 36.7768L22.8053 37.7789L21.6229 39.5342L24.132 41.1263C24.6924 41.4819 24.881 41.3369 25.4223 40.5334L25.9385 39.767L27.5306 40.7772C27.3945 41.1142 27.1334 41.6368 26.842 42.0694Z" fill="white"/>
<path d="M31.8792 36.0362C30.1894 37.7782 28.0579 37.7778 26.2963 36.1681C24.5236 34.5483 24.395 32.4833 26.0848 30.7414C27.7642 29.0102 29.8748 29.032 31.6475 30.6519C33.4091 32.2616 33.5587 34.305 31.8792 36.0362ZM30.4168 34.6998C31.2617 33.8289 31.1993 33.2038 30.1246 32.2218C29.0388 31.2296 28.3922 31.2068 27.5473 32.0777C26.6919 32.9595 26.7544 33.5845 27.8401 34.5767C28.9148 35.5587 29.5614 35.5816 30.4168 34.6998Z" fill="white"/>
<path d="M38.4784 29.9654L36.6415 31.2554L32.1546 25.2368L33.8683 24.0335L34.5908 25.0026L34.6648 24.9507C34.5181 24.124 34.716 23.2558 35.5914 22.6412C36.8858 21.7321 38.0624 22.3278 38.9634 23.5363L39.3737 24.0867L37.5368 25.3766L37.2959 25.0536C36.8142 24.4075 36.453 24.3512 35.8736 24.7581C35.3065 25.1564 35.1779 25.5383 35.6686 26.1964L38.4784 29.9654Z" fill="white"/>
<path d="M46.7482 27.7118C46.279 27.9235 45.73 28.0736 45.4082 28.1374L44.6125 26.4769L45.7715 25.9537C46.2958 25.7171 46.4569 25.5629 46.4586 25.041L46.4608 24.7305L40.4565 19.5898L42.7608 18.5498L45.2398 20.8513L46.3589 21.9261L46.5107 21.8576L46.316 20.3656L45.9481 17.1112L48.2524 16.0711L48.6139 24.6708C48.6815 26.3179 48.1142 27.0952 46.7482 27.7118Z" fill="white"/>
<path d="M58.9714 14.406L58.3811 15.792L56.915 15.0906L57.6907 13.7937L57.6227 13.6702L56.0888 13.5493L56.3231 11.9824L57.8654 12.3266L57.9525 12.2074L57.5894 10.7543L59.1945 10.4889L59.3476 11.9767L59.4705 12.0612L60.7959 11.2578L61.5367 12.6634L60.1279 13.2559L60.1059 13.3944L61.2803 14.3688L60.1388 15.5164L59.1214 14.3812L58.9714 14.406Z" fill="white"/>
</svg>
